<?xml version="1.0" encoding="UTF-8" standalone="no"?>
<!-- Created with Inkscape (http://www.inkscape.org/) -->

<svg
   xmlns:dc="http://purl.org/dc/elements/1.1/"
   xmlns:cc="http://creativecommons.org/ns#"
   xmlns:rdf="http://www.w3.org/1999/02/22-rdf-syntax-ns#"
   xmlns:svg="http://www.w3.org/2000/svg"
   xmlns="http://www.w3.org/2000/svg"
   xmlns:sodipodi="http://sodipodi.sourceforge.net/DTD/sodipodi-0.dtd"
   xmlns:inkscape="http://www.inkscape.org/namespaces/inkscape"
   version="1.1"
   id="svg2"
   xml:space="preserve"
   width="664.22266"
   height="589.38934"
   viewBox="0 0 664.22266 589.38934"
   sodipodi:docname="triggers.svg"
   inkscape:version="0.92.5 (2060ec1f9f, 2020-04-08)"><metadata
     id="metadata8"><rdf:RDF><cc:Work
         rdf:about=""><dc:format>image/svg+xml</dc:format><dc:type
           rdf:resource="http://purl.org/dc/dcmitype/StillImage" /><dc:title></dc:title></cc:Work></rdf:RDF></metadata><defs
     id="defs6"><clipPath
       clipPathUnits="userSpaceOnUse"
       id="clipPath18"><path
         d="M 0,442.042 H 498.167 V 0 H 0 Z"
         id="path16"
         inkscape:connector-curvature="0" /></clipPath><clipPath
       clipPathUnits="userSpaceOnUse"
       id="clipPath46"><path
         d="M 181.972,162.333 H 285.061 V 339.102 H 181.972 Z"
         id="path44"
         inkscape:connector-curvature="0" /></clipPath></defs><sodipodi:namedview
     pagecolor="#ffffff"
     bordercolor="#666666"
     borderopacity="1"
     objecttolerance="10"
     gridtolerance="10"
     guidetolerance="10"
     inkscape:pageopacity="0"
     inkscape:pageshadow="2"
     inkscape:window-width="1339"
     inkscape:window-height="840"
     id="namedview4"
     showgrid="false"
     inkscape:zoom="0.40041443"
     inkscape:cx="332.11133"
     inkscape:cy="294.69467"
     inkscape:window-x="0"
     inkscape:window-y="0"
     inkscape:window-maximized="0"
     inkscape:current-layer="g10" /><g
     id="g10"
     inkscape:groupmode="layer"
     inkscape:label="Web Puzzlers Icons Svg"
     transform="matrix(1.3333333,0,0,-1.3333333,0,589.38933)"><g
       id="g12"
       transform="matrix(1.5080262,0,0,1.5080262,-158.81692,-112.80555)"><g
         id="g14"
         clip-path="url(#clipPath18)"><g
           id="g20"
           transform="translate(195.3752,85.4902)"><path
             d="M 0,0 C 0.192,0.729 0.394,1.453 0.605,2.172 0.67,2.393 0.731,2.615 0.797,2.835 1.071,3.74 1.359,4.638 1.661,5.528 1.728,5.723 1.8,5.916 1.868,6.111 c 0.247,0.708 0.503,1.412 0.768,2.11 0.104,0.272 0.209,0.544 0.315,0.815 0.263,0.67 0.536,1.335 0.816,1.996 0.093,0.22 0.183,0.441 0.278,0.66 0.373,0.858 0.758,1.708 1.159,2.548 0.091,0.192 0.188,0.38 0.281,0.571 0.321,0.661 0.65,1.317 0.988,1.966 0.147,0.282 0.297,0.56 0.447,0.84 0.296,0.551 0.598,1.098 0.906,1.641 0.18,0.315 0.359,0.631 0.543,0.944 0.317,0.541 0.643,1.077 0.972,1.609 0.172,0.278 0.341,0.559 0.517,0.834 0.33,0.519 0.673,1.029 1.015,1.539 0.205,0.306 0.405,0.617 0.615,0.92 0.399,0.577 0.811,1.143 1.225,1.708 0.161,0.219 0.315,0.444 0.478,0.661 0.181,0.241 0.371,0.472 0.554,0.711 0.452,0.588 0.905,1.175 1.372,1.748 0.252,0.308 0.514,0.606 0.77,0.91 0.411,0.488 0.822,0.977 1.244,1.453 0.202,0.227 0.411,0.446 0.615,0.67 0.619,0.68 1.248,1.348 1.889,2.002 0.261,0.265 0.523,0.528 0.787,0.789 0.666,0.659 1.345,1.303 2.034,1.933 0.202,0.185 0.399,0.376 0.603,0.559 0.38,0.339 0.769,0.665 1.155,0.995 0.365,0.312 0.727,0.63 1.098,0.934 0.394,0.324 0.797,0.633 1.197,0.948 0.375,0.293 0.745,0.593 1.125,0.879 0.408,0.307 0.826,0.599 1.24,0.897 0.384,0.276 0.764,0.558 1.153,0.825 0.42,0.288 0.848,0.561 1.273,0.84 0.395,0.258 0.787,0.524 1.187,0.774 0.433,0.27 0.874,0.525 1.313,0.786 0.402,0.239 0.801,0.485 1.208,0.715 0.446,0.253 0.901,0.488 1.352,0.73 0.411,0.22 0.817,0.447 1.232,0.658 0.459,0.234 0.926,0.449 1.389,0.671 0.417,0.2 0.83,0.408 1.252,0.599 0.471,0.214 0.95,0.409 1.427,0.611 0.423,0.18 0.843,0.368 1.27,0.539 0.482,0.192 0.971,0.366 1.458,0.546 0.43,0.16 0.857,0.329 1.291,0.48 0.497,0.172 1.001,0.324 1.502,0.484 0.432,0.138 0.86,0.286 1.296,0.414 0.511,0.152 1.03,0.282 1.546,0.42 0.433,0.116 0.863,0.243 1.3,0.35 0.529,0.129 1.066,0.237 1.599,0.353 0.43,0.094 0.857,0.198 1.29,0.283 0.552,0.108 1.11,0.192 1.666,0.285 0.422,0.071 0.841,0.153 1.266,0.215 0.58,0.085 1.166,0.146 1.751,0.214 0.407,0.048 0.81,0.108 1.219,0.147 0.657,0.064 1.321,0.102 1.984,0.146 0.34,0.022 0.678,0.057 1.02,0.074 1.008,0.048 2.021,0.073 3.039,0.073 H 48.536 c -1.018,0 -2.031,-0.025 -3.039,-0.073 -0.342,-0.017 -0.68,-0.052 -1.021,-0.074 C 43.814,54.942 43.15,54.904 42.492,54.84 42.083,54.801 41.68,54.741 41.273,54.693 40.689,54.625 40.102,54.564 39.522,54.479 39.098,54.417 38.679,54.335 38.256,54.264 37.7,54.171 37.142,54.087 36.591,53.979 36.158,53.894 35.731,53.79 35.301,53.696 34.767,53.58 34.231,53.472 33.702,53.343 33.265,53.236 32.835,53.109 32.401,52.993 31.885,52.855 31.367,52.725 30.856,52.573 30.42,52.445 29.992,52.297 29.56,52.159 29.058,51.999 28.554,51.847 28.058,51.675 27.624,51.524 27.197,51.355 26.767,51.195 26.28,51.015 25.79,50.841 25.308,50.649 24.881,50.478 24.462,50.29 24.038,50.11 23.562,49.908 23.083,49.713 22.611,49.499 22.19,49.308 21.777,49.1 21.36,48.9 20.896,48.678 20.429,48.463 19.971,48.229 19.556,48.018 19.149,47.791 18.739,47.571 18.287,47.329 17.833,47.094 17.387,46.841 16.98,46.611 16.581,46.365 16.178,46.126 15.74,45.865 15.298,45.61 14.866,45.34 14.465,45.09 14.074,44.824 13.679,44.566 13.254,44.287 12.825,44.014 12.406,43.726 12.017,43.458 11.637,43.177 11.253,42.901 10.839,42.603 10.421,42.311 10.013,42.004 9.633,41.718 9.262,41.418 8.888,41.125 8.488,40.81 8.084,40.501 7.69,40.177 7.319,39.873 6.958,39.555 6.593,39.243 6.207,38.913 5.818,38.587 5.438,38.248 5.383,38.199 5.325,38.153 5.27,38.103 h 0.012 v 0 H 5.27 v 0 C 5.122,37.969 4.982,37.824 4.834,37.689 4.145,37.059 3.467,36.415 2.8,35.756 2.536,35.495 2.275,35.232 2.014,34.967 1.372,34.312 0.742,33.644 0.123,32.963 -0.021,32.805 -0.174,32.658 -0.316,32.498 -0.375,32.432 -0.431,32.362 -0.49,32.296 -0.914,31.818 -1.326,31.327 -1.738,30.837 -1.993,30.535 -2.253,30.239 -2.504,29.933 -2.972,29.359 -3.425,28.771 -3.878,28.182 -4.045,27.964 -4.221,27.754 -4.387,27.533 -4.402,27.513 -4.415,27.493 -4.43,27.473 -4.593,27.256 -4.748,27.031 -4.908,26.812 -5.322,26.247 -5.734,25.682 -6.134,25.104 -6.344,24.8 -6.545,24.488 -6.751,24.181 -7.03,23.765 -7.315,23.353 -7.586,22.931 -7.647,22.837 -7.703,22.74 -7.763,22.646 -7.939,22.37 -8.108,22.088 -8.281,21.809 -8.61,21.277 -8.936,20.743 -9.253,20.202 c -0.183,-0.313 -0.363,-0.629 -0.542,-0.944 -0.148,-0.262 -0.303,-0.518 -0.448,-0.781 -0.157,-0.284 -0.305,-0.574 -0.458,-0.86 -0.15,-0.28 -0.3,-0.558 -0.447,-0.84 -0.338,-0.649 -0.667,-1.305 -0.989,-1.966 -0.092,-0.191 -0.189,-0.379 -0.281,-0.571 -0.023,-0.048 -0.047,-0.095 -0.07,-0.143 -0.376,-0.793 -0.737,-1.595 -1.088,-2.404 -0.096,-0.22 -0.186,-0.443 -0.28,-0.665 -0.183,-0.431 -0.369,-0.86 -0.545,-1.296 -0.093,-0.23 -0.178,-0.464 -0.268,-0.694 C -14.776,8.766 -14.882,8.493 -14.986,8.219 -15.25,7.523 -15.505,6.822 -15.752,6.116 -15.821,5.919 -15.893,5.724 -15.96,5.526 -15.983,5.46 -16.007,5.396 -16.03,5.33 -16.308,4.506 -16.571,3.673 -16.824,2.835 -16.89,2.615 -16.952,2.393 -17.016,2.172 -17.146,1.729 -17.28,1.287 -17.403,0.84 -17.479,0.562 -17.548,0.28 -17.621,0 c -0.067,-0.253 -0.134,-0.506 -0.198,-0.759 -0.234,-0.923 -0.458,-1.851 -0.661,-2.788 h 17.621 c 0.203,0.937 0.428,1.865 0.661,2.788 C -0.133,-0.506 -0.067,-0.253 0,0"
             style="fill:#6d6101;fill-opacity:1;fill-rule:nonzero;stroke:none"
             id="path22"
             inkscape:connector-curvature="0" /></g><path
           d="m 356.137,81.944 h 17.621 v 100.161 h -17.621 z"
           style="fill:#6d6101;fill-opacity:1;fill-rule:nonzero;stroke:none"
           id="path24"
           inkscape:connector-curvature="0" /><path
           d="m 356.137,242.254 h 17.621 v 117.845 h -17.621 z"
           style="fill:#6d6101;fill-opacity:1;fill-rule:nonzero;stroke:none"
           id="path26"
           inkscape:connector-curvature="0" /><g
           id="g28"
           transform="translate(150.9992,360.0984)"><path
             d="M 0,0 H 17.621 222.759 205.138 Z"
             style="fill:#736700;fill-opacity:1;fill-rule:nonzero;stroke:none"
             id="path30"
             inkscape:connector-curvature="0" /></g><g
           id="g32"
           transform="translate(356.1372,360.0984)"><path
             d="m 0,0 v -117.845 c 6.529,6.577 15.165,10.6 24.608,10.6 2.666,0 5.261,-0.333 7.765,-0.962 16.46,-3.929 28.79,-20.231 28.79,-39.708 0,-19.45 -12.33,-35.751 -28.79,-39.716 -2.504,-0.63 -5.099,-0.955 -7.765,-0.955 -9.443,0 -18.079,4.023 -24.608,10.592 v -100.161 h -45.211 c -7.316,33.617 -34.59,58.68 -67.015,58.68 -32.425,0 -59.726,-25.063 -67.016,-58.68 h -67.061 v 232.354 c 0,25.296 18.43,45.801 41.165,45.801 z"
             style="fill:#958602;fill-opacity:1;fill-rule:nonzero;stroke:none"
             id="path34"
             inkscape:connector-curvature="0" /></g><g
           id="g36"
           transform="translate(434.8681,210.0743)"><path
             d="M 0,0 C 0.01,0.22 0.018,0.44 0.025,0.66 0.03,0.829 0.04,0.997 0.044,1.166 0.05,1.48 0.053,1.794 0.053,2.109 c 0,0.769 -0.026,1.532 -0.064,2.292 -0.004,0.091 -0.002,0.183 -0.007,0.274 -0.008,0.137 -0.024,0.271 -0.033,0.408 -0.03,0.456 -0.067,0.909 -0.11,1.361 -0.022,0.232 -0.043,0.464 -0.069,0.694 -0.056,0.509 -0.123,1.014 -0.196,1.517 -0.019,0.128 -0.031,0.258 -0.051,0.386 -0.004,0.031 -0.011,0.061 -0.016,0.092 -0.101,0.642 -0.214,1.278 -0.341,1.909 -0.027,0.134 -0.06,0.266 -0.088,0.399 -0.105,0.497 -0.216,0.991 -0.337,1.48 -0.054,0.217 -0.113,0.432 -0.17,0.647 -0.107,0.406 -0.218,0.81 -0.336,1.21 -0.067,0.229 -0.137,0.456 -0.208,0.682 -0.122,0.391 -0.25,0.779 -0.382,1.164 -0.047,0.136 -0.088,0.276 -0.136,0.411 -0.026,0.074 -0.057,0.146 -0.084,0.22 -0.212,0.586 -0.434,1.166 -0.669,1.738 -0.019,0.046 -0.035,0.093 -0.054,0.138 -0.256,0.616 -0.528,1.22 -0.81,1.819 -0.028,0.058 -0.052,0.119 -0.08,0.178 -0.063,0.133 -0.134,0.261 -0.199,0.394 -0.179,0.364 -0.361,0.726 -0.549,1.084 -0.108,0.204 -0.217,0.407 -0.327,0.609 -0.192,0.349 -0.388,0.694 -0.589,1.036 -0.111,0.191 -0.222,0.382 -0.336,0.57 -0.231,0.38 -0.469,0.754 -0.711,1.125 -0.09,0.138 -0.176,0.278 -0.268,0.415 -0.337,0.503 -0.683,0.997 -1.04,1.481 -0.009,0.014 -0.018,0.028 -0.028,0.041 -0.049,0.067 -0.103,0.13 -0.153,0.196 -0.318,0.425 -0.643,0.844 -0.977,1.254 -0.127,0.157 -0.258,0.311 -0.388,0.466 -0.281,0.335 -0.566,0.666 -0.858,0.99 -0.081,0.091 -0.157,0.187 -0.239,0.276 -0.067,0.074 -0.138,0.143 -0.205,0.216 -0.199,0.215 -0.402,0.425 -0.605,0.635 -0.177,0.182 -0.354,0.364 -0.534,0.543 -0.208,0.206 -0.42,0.407 -0.632,0.607 -0.126,0.119 -0.248,0.244 -0.375,0.361 -0.064,0.059 -0.13,0.114 -0.194,0.172 -0.157,0.143 -0.317,0.282 -0.476,0.421 -0.223,0.196 -0.447,0.39 -0.674,0.58 -0.166,0.138 -0.332,0.274 -0.5,0.409 -0.115,0.093 -0.226,0.19 -0.342,0.281 -0.062,0.049 -0.129,0.091 -0.191,0.14 -0.604,0.468 -1.218,0.921 -1.847,1.35 -0.024,0.016 -0.047,0.035 -0.071,0.052 -0.065,0.044 -0.134,0.081 -0.199,0.125 -0.537,0.358 -1.083,0.7 -1.637,1.029 -0.082,0.048 -0.16,0.104 -0.242,0.151 -0.048,0.028 -0.099,0.052 -0.147,0.079 -0.596,0.343 -1.202,0.669 -1.817,0.976 -0.037,0.018 -0.072,0.04 -0.11,0.059 -0.087,0.043 -0.179,0.078 -0.267,0.121 -0.507,0.245 -1.021,0.477 -1.54,0.697 -0.096,0.041 -0.188,0.089 -0.284,0.129 -0.06,0.024 -0.122,0.043 -0.182,0.068 -0.622,0.253 -1.251,0.49 -1.888,0.706 -0.024,0.008 -0.047,0.018 -0.071,0.026 -0.074,0.025 -0.15,0.043 -0.224,0.067 -0.566,0.185 -1.137,0.354 -1.712,0.509 -0.096,0.026 -0.19,0.06 -0.286,0.085 -0.211,0.055 -0.422,0.107 -0.635,0.158 -0.646,0.163 -1.3,0.304 -1.958,0.426 -0.02,0.004 -0.039,0.009 -0.059,0.013 -0.534,0.098 -1.073,0.178 -1.615,0.249 -0.126,0.016 -0.253,0.032 -0.38,0.047 -0.14,0.017 -0.28,0.038 -0.421,0.053 -0.444,0.046 -0.889,0.084 -1.337,0.112 -0.016,0.001 -0.032,0.001 -0.048,0.002 -0.424,0.026 -0.85,0.044 -1.278,0.053 -0.222,0.005 -0.445,0.007 -0.668,0.007 h -17.622 c 0.653,0 1.302,-0.021 1.946,-0.06 0.016,-10e-4 0.033,-10e-4 0.049,-0.002 0.59,-0.037 1.176,-0.096 1.758,-0.165 0.127,-0.015 0.253,-0.031 0.38,-0.047 0.561,-0.074 1.12,-0.159 1.673,-0.262 0.659,-0.122 1.312,-0.263 1.959,-0.426 0.309,-0.074 0.614,-0.161 0.92,-0.243 0.576,-0.155 1.147,-0.324 1.712,-0.509 0.098,-0.032 0.198,-0.06 0.295,-0.093 0.638,-0.216 1.267,-0.453 1.889,-0.706 0.156,-0.064 0.311,-0.131 0.466,-0.197 0.519,-0.22 1.033,-0.452 1.54,-0.697 0.125,-0.061 0.252,-0.118 0.377,-0.18 0.615,-0.307 1.22,-0.633 1.817,-0.976 0.13,-0.075 0.259,-0.154 0.388,-0.23 0.555,-0.329 1.101,-0.671 1.638,-1.029 0.089,-0.06 0.181,-0.117 0.27,-0.177 0.629,-0.428 1.243,-0.881 1.846,-1.35 0.179,-0.139 0.358,-0.279 0.535,-0.421 0.167,-0.135 0.333,-0.271 0.498,-0.409 0.228,-0.19 0.452,-0.384 0.676,-0.58 0.158,-0.139 0.317,-0.278 0.474,-0.42 0.192,-0.175 0.382,-0.355 0.571,-0.535 0.212,-0.2 0.423,-0.401 0.63,-0.606 0.181,-0.178 0.357,-0.361 0.534,-0.543 0.204,-0.21 0.406,-0.42 0.605,-0.635 0.15,-0.162 0.297,-0.327 0.445,-0.492 0.291,-0.324 0.576,-0.654 0.857,-0.989 0.131,-0.156 0.262,-0.31 0.39,-0.468 0.333,-0.41 0.658,-0.828 0.976,-1.253 0.059,-0.079 0.122,-0.156 0.181,-0.237 0.357,-0.484 0.703,-0.978 1.039,-1.48 0.093,-0.138 0.18,-0.28 0.271,-0.419 0.241,-0.37 0.479,-0.743 0.709,-1.122 0.114,-0.188 0.224,-0.379 0.336,-0.57 0.2,-0.342 0.397,-0.687 0.588,-1.036 0.111,-0.202 0.22,-0.405 0.328,-0.609 0.187,-0.357 0.369,-0.719 0.547,-1.082 0.094,-0.192 0.19,-0.382 0.281,-0.575 0.282,-0.598 0.554,-1.203 0.809,-1.818 0.019,-0.045 0.036,-0.092 0.055,-0.138 0.235,-0.572 0.457,-1.152 0.668,-1.738 0.076,-0.209 0.148,-0.421 0.22,-0.631 0.133,-0.385 0.261,-0.772 0.382,-1.162 0.072,-0.228 0.142,-0.456 0.209,-0.685 0.118,-0.4 0.229,-0.803 0.336,-1.208 0.057,-0.216 0.116,-0.43 0.169,-0.648 0.122,-0.489 0.232,-0.983 0.337,-1.48 0.029,-0.133 0.061,-0.265 0.089,-0.399 0.127,-0.63 0.24,-1.267 0.341,-1.908 0.025,-0.16 0.043,-0.323 0.067,-0.484 0.073,-0.501 0.14,-1.004 0.196,-1.512 0.026,-0.23 0.047,-0.462 0.069,-0.694 0.043,-0.451 0.079,-0.904 0.109,-1.359 0.015,-0.228 0.029,-0.456 0.041,-0.686 0.038,-0.758 0.064,-1.521 0.064,-2.29 0,-0.486 -0.013,-0.968 -0.029,-1.45 -0.007,-0.219 -0.014,-0.439 -0.024,-0.657 -0.017,-0.361 -0.039,-0.719 -0.064,-1.077 -0.014,-0.202 -0.027,-0.405 -0.044,-0.607 -0.014,-0.177 -0.035,-0.352 -0.052,-0.528 -0.071,-0.741 -0.159,-1.477 -0.265,-2.205 -0.019,-0.135 -0.035,-0.27 -0.056,-0.404 -0.119,-0.765 -0.258,-1.523 -0.415,-2.273 -0.037,-0.178 -0.078,-0.353 -0.117,-0.53 -0.136,-0.615 -0.285,-1.225 -0.446,-1.828 -0.039,-0.148 -0.076,-0.297 -0.117,-0.445 -0.196,-0.707 -0.411,-1.406 -0.641,-2.096 -0.051,-0.155 -0.107,-0.308 -0.161,-0.462 -0.199,-0.577 -0.411,-1.148 -0.634,-1.713 -0.062,-0.157 -0.122,-0.316 -0.186,-0.473 -0.278,-0.683 -0.573,-1.357 -0.884,-2.02 -0.06,-0.126 -0.123,-0.25 -0.183,-0.375 -0.297,-0.615 -0.606,-1.22 -0.93,-1.815 -0.065,-0.12 -0.128,-0.242 -0.194,-0.361 -0.389,-0.699 -0.798,-1.383 -1.224,-2.053 -0.082,-0.131 -0.166,-0.26 -0.25,-0.389 -0.478,-0.734 -0.974,-1.451 -1.493,-2.147 -0.136,-0.182 -0.275,-0.361 -0.413,-0.54 -0.187,-0.241 -0.373,-0.482 -0.564,-0.718 -0.159,-0.197 -0.322,-0.389 -0.484,-0.582 -0.194,-0.23 -0.389,-0.46 -0.588,-0.686 -0.143,-0.162 -0.288,-0.32 -0.433,-0.479 -0.309,-0.339 -0.624,-0.672 -0.944,-0.999 -0.134,-0.137 -0.266,-0.275 -0.402,-0.409 -0.434,-0.431 -0.875,-0.854 -1.328,-1.261 -0.014,-0.013 -0.027,-0.026 -0.041,-0.039 -0.486,-0.437 -0.986,-0.856 -1.493,-1.265 -0.144,-0.116 -0.29,-0.23 -0.436,-0.344 -0.396,-0.311 -0.799,-0.613 -1.207,-0.906 -0.135,-0.098 -0.269,-0.197 -0.406,-0.293 -0.529,-0.37 -1.066,-0.727 -1.613,-1.066 -0.098,-0.061 -0.198,-0.117 -0.296,-0.177 -0.461,-0.28 -0.927,-0.549 -1.4,-0.807 -0.167,-0.091 -0.334,-0.181 -0.503,-0.27 -0.472,-0.248 -0.95,-0.486 -1.433,-0.712 -0.109,-0.051 -0.216,-0.106 -0.326,-0.156 -0.584,-0.266 -1.177,-0.514 -1.776,-0.747 -0.153,-0.06 -0.308,-0.114 -0.462,-0.171 -0.469,-0.175 -0.943,-0.34 -1.42,-0.493 -0.177,-0.057 -0.354,-0.115 -0.532,-0.169 -0.621,-0.189 -1.247,-0.366 -1.881,-0.519 -2.504,-0.63 -5.098,-0.955 -7.765,-0.955 h 17.622 c 2.666,0 5.261,0.325 7.764,0.955 0.635,0.153 1.26,0.33 1.881,0.519 0.179,0.054 0.355,0.112 0.532,0.169 0.478,0.153 0.951,0.318 1.421,0.493 0.154,0.057 0.308,0.111 0.462,0.171 0.599,0.233 1.191,0.481 1.776,0.747 0.109,0.05 0.216,0.105 0.325,0.156 0.484,0.226 0.961,0.464 1.434,0.712 0.168,0.089 0.336,0.179 0.503,0.27 0.472,0.259 0.939,0.528 1.401,0.808 0.097,0.06 0.197,0.115 0.294,0.175 0.547,0.34 1.084,0.697 1.614,1.067 0.136,0.096 0.269,0.195 0.404,0.292 0.409,0.294 0.812,0.597 1.21,0.908 0.145,0.114 0.29,0.226 0.434,0.343 0.507,0.409 1.007,0.828 1.494,1.266 10e-4,10e-4 0.003,0.002 0.004,0.004 0.012,0.009 0.022,0.02 0.033,0.03 0.454,0.409 0.896,0.833 1.331,1.265 0.136,0.134 0.269,0.272 0.403,0.409 0.319,0.327 0.634,0.66 0.943,0.999 0.08,0.087 0.164,0.169 0.243,0.257 0.065,0.073 0.126,0.149 0.19,0.222 0.199,0.226 0.394,0.456 0.588,0.686 0.163,0.193 0.325,0.385 0.484,0.581 0.192,0.237 0.379,0.479 0.565,0.72 0.109,0.142 0.223,0.278 0.331,0.421 0.028,0.038 0.053,0.079 0.081,0.117 0.519,0.697 1.016,1.414 1.493,2.148 0.043,0.066 0.091,0.127 0.134,0.193 0.041,0.064 0.076,0.132 0.117,0.196 0.425,0.67 0.834,1.354 1.223,2.053 0.021,0.037 0.045,0.072 0.066,0.11 0.045,0.082 0.084,0.168 0.129,0.251 0.323,0.595 0.633,1.2 0.929,1.815 0.041,0.085 0.088,0.165 0.129,0.251 0.019,0.04 0.035,0.083 0.054,0.124 0.311,0.663 0.606,1.336 0.885,2.02 0.022,0.055 0.049,0.108 0.071,0.163 0.041,0.102 0.075,0.208 0.115,0.31 0.223,0.565 0.434,1.136 0.634,1.713 0.036,0.104 0.078,0.204 0.114,0.308 0.017,0.051 0.03,0.103 0.047,0.154 0.23,0.69 0.444,1.389 0.641,2.096 0.012,0.046 0.028,0.089 0.041,0.134 0.028,0.102 0.048,0.208 0.075,0.311 0.162,0.604 0.31,1.213 0.446,1.828 0.025,0.111 0.057,0.219 0.081,0.331 0.014,0.065 0.023,0.133 0.036,0.199 0.157,0.751 0.297,1.508 0.416,2.274 0.006,0.042 0.016,0.082 0.022,0.124 0.014,0.091 0.02,0.185 0.033,0.276 0.107,0.731 0.195,1.468 0.266,2.21 0.009,0.101 0.027,0.199 0.036,0.3 0.006,0.074 0.009,0.15 0.015,0.224 0.018,0.204 0.03,0.409 0.044,0.613 C -0.039,-0.715 -0.016,-0.358 0,0"
             style="fill:#6d6101;fill-opacity:1;fill-rule:nonzero;stroke:none"
             id="path38"
             inkscape:connector-curvature="0" /></g></g></g><g
       id="g40"
       transform="matrix(1.5080262,0,0,1.5080262,-158.81692,-112.80555)"><g
         id="g42"
         clip-path="url(#clipPath46)"><g
           id="g48"
           transform="translate(220.8077,305.4033)"><path
             d="M 0,0 C -0.211,0 -0.424,-0.008 -0.639,-0.024 -5.524,-0.393 -9.213,-5.163 -9.213,-10.608 V -72.96 c 0,-1.062 -0.599,-2.007 -1.48,-2.358 -0.25,-0.098 -0.508,-0.145 -0.762,-0.145 -0.66,0 -1.3,0.319 -1.738,0.91 l -3.624,4.896 c -2.612,3.52 -6.409,5.34 -10.233,5.34 -2.952,0 -5.92,-1.084 -8.372,-3.306 l -1.974,-1.809 c -0.905,-0.819 -1.156,-2.223 -0.622,-3.366 l 26.273,-56.007 c 4.125,-8.802 11.438,-14.265 19.091,-14.265 H 39.5 c 6.326,0 12.659,3.024 17.359,8.316 4.7,5.283 7.394,12.366 7.394,19.44 v 53.568 c 0,0.9 -0.089,1.683 -0.283,2.475 -0.688,2.835 -2.346,5.346 -4.676,6.723 -1.425,0.848 -2.943,1.248 -4.433,1.248 -0.802,0 -1.595,-0.116 -2.362,-0.339 -1.383,-0.405 -2.354,-1.8 -2.265,-3.384 0.009,-0.252 0.016,-0.495 0.016,-0.747 v -11.493 c 0,-1.242 -0.768,-2.385 -1.868,-2.574 -0.124,-0.021 -0.246,-0.032 -0.366,-0.032 -1.25,0 -2.247,1.117 -2.247,2.489 v 11.457 c 0,1.125 -0.162,2.232 -0.485,3.294 -1.27,4.158 -4.765,6.948 -8.713,6.948 -0.849,0 -1.682,-0.126 -2.483,-0.378 -1.415,-0.441 -2.33,-2.043 -2.079,-3.654 0.105,-0.711 0.17,-1.431 0.194,-2.169 0.009,-0.171 0.009,-0.324 0.009,-0.495 v -18.117 c 0,-1.373 -1.008,-2.502 -2.241,-2.502 -0.125,0 -0.252,0.012 -0.38,0.036 -1.1,0.198 -1.861,1.359 -1.861,2.601 v 17.982 c 0,2.034 -0.509,3.942 -1.504,5.661 -1.561,2.691 -4.223,4.464 -7.087,4.707 -0.258,0.022 -0.514,0.033 -0.768,0.033 -0.899,0 -1.772,-0.137 -2.605,-0.411 -1.245,-0.405 -2.07,-1.728 -2.07,-3.168 v -28.062 c 0,-1.386 -1.004,-2.502 -2.241,-2.502 -1.238,0 -2.249,1.116 -2.249,2.502 v 63.369 C 9.206,-4.597 5.076,0 0,0"
             style="fill:#ffffff;fill-opacity:1;fill-rule:nonzero;stroke:none"
             id="path50"
             inkscape:connector-curvature="0" /></g><g
           id="g52"
           transform="translate(220.9056,339.1022)"><path
             d="m 0,0 c -21.469,0 -38.933,-19.431 -38.933,-43.317 0,-16.074 7.927,-30.735 20.7,-38.286 0.332,-0.198 0.696,-0.288 1.044,-0.288 0.808,0 1.585,0.486 1.989,1.323 0.583,1.224 0.162,2.736 -0.93,3.375 -11.3,6.678 -18.314,19.656 -18.314,33.876 0,21.132 15.45,38.322 34.444,38.322 18.993,0 34.443,-17.19 34.443,-38.322 0,-9.279 -3.017,-18.234 -8.493,-25.209 -0.817,-1.035 -0.72,-2.61 0.21,-3.519 0.429,-0.414 0.955,-0.621 1.481,-0.621 0.622,0 1.245,0.288 1.69,0.855 6.188,7.893 9.602,18.009 9.602,28.494 C 38.933,-19.431 21.468,0 0,0"
             style="fill:#ffffff;fill-opacity:1;fill-rule:nonzero;stroke:none"
             id="path54"
             inkscape:connector-curvature="0" /></g><g
           id="g56"
           transform="translate(220.9056,330.0392)"><path
             d="m 0,0 c -16.979,0 -30.788,-15.363 -30.788,-34.254 0,-10.035 3.932,-19.53 10.799,-26.055 0.421,-0.405 0.939,-0.603 1.457,-0.603 0.631,0 1.261,0.297 1.706,0.873 0.801,1.053 0.696,2.628 -0.25,3.528 -5.865,5.571 -9.23,13.68 -9.23,22.257 0,16.137 11.802,29.268 26.306,29.268 14.504,0 26.306,-13.131 26.306,-29.268 0,-7.983 -2.839,-15.444 -7.984,-20.997 -0.89,-0.963 -0.914,-2.547 -0.049,-3.537 0.437,-0.504 1.027,-0.756 1.61,-0.756 0.566,0 1.124,0.234 1.561,0.711 6.027,6.507 9.351,15.237 9.351,24.579 C 30.795,-15.363 16.979,0 0,0"
             style="fill:#ffffff;fill-opacity:1;fill-rule:nonzero;stroke:none"
             id="path58"
             inkscape:connector-curvature="0" /></g><g
           id="g60"
           transform="translate(220.9056,320.4002)"><path
             d="m 0,0 c -12.199,0 -22.124,-11.043 -22.124,-24.615 0,-4.365 1.035,-8.649 3.001,-12.393 0.421,-0.792 1.173,-1.242 1.941,-1.242 0.389,0 0.777,0.117 1.133,0.342 1.067,0.693 1.432,2.223 0.801,3.42 -1.561,2.979 -2.386,6.399 -2.386,9.873 0,10.818 7.911,19.62 17.634,19.62 9.723,0 17.642,-8.802 17.642,-19.62 0,-3.474 -0.833,-6.894 -2.394,-9.873 -0.623,-1.197 -0.267,-2.727 0.801,-3.42 0.356,-0.225 0.752,-0.342 1.132,-0.342 0.769,0 1.521,0.45 1.942,1.242 1.965,3.744 3.001,8.028 3.001,12.393 C 22.124,-11.043 12.198,0 0,0"
             style="fill:#ffffff;fill-opacity:1;fill-rule:nonzero;stroke:none"
             id="path62"
             inkscape:connector-curvature="0" /></g></g></g></g></svg>