<svg id="svg" version="1.1" xmlns="http://www.w3.org/2000/svg" xmlns:xlink="http://www.w3.org/1999/xlink" width="400" height="400" viewBox="0, 0, 400,400"><g id="svgg"><path id="path0" d="M159.800 0.275 C 158.480 0.368,157.229 0.614,157.020 0.822 C 156.811 1.030,155.877 1.200,154.944 1.200 C 154.011 1.200,153.136 1.380,153.000 1.600 C 152.864 1.820,152.234 2.000,151.600 2.000 C 150.966 2.000,150.336 2.180,150.200 2.400 C 150.064 2.620,149.333 2.800,148.576 2.800 C 147.819 2.800,147.200 2.980,147.200 3.200 C 147.200 3.420,146.660 3.600,146.000 3.600 C 145.340 3.600,144.800 3.780,144.800 4.000 C 144.800 4.220,144.350 4.400,143.800 4.400 C 143.250 4.400,142.800 4.580,142.800 4.800 C 142.800 5.020,142.260 5.200,141.600 5.200 C 140.940 5.200,140.400 5.347,140.400 5.528 C 140.400 5.708,139.500 6.100,138.400 6.400 C 137.300 6.700,136.400 7.092,136.400 7.272 C 136.400 7.453,136.040 7.600,135.600 7.600 C 135.160 7.600,134.800 7.780,134.800 8.000 C 134.800 8.220,134.440 8.400,134.000 8.400 C 133.560 8.400,133.200 8.580,133.200 8.800 C 133.200 9.020,132.840 9.200,132.400 9.200 C 131.960 9.200,131.600 9.380,131.600 9.600 C 131.600 9.820,131.283 10.000,130.896 10.000 C 130.508 10.000,128.984 10.810,127.508 11.800 C 126.033 12.790,124.639 13.600,124.413 13.600 C 124.186 13.600,124.000 13.780,124.000 14.000 C 124.000 14.220,123.757 14.400,123.459 14.400 C 123.162 14.400,122.354 14.940,121.663 15.600 C 120.972 16.260,120.252 16.800,120.063 16.800 C 119.874 16.800,119.154 17.340,118.463 18.000 C 117.772 18.660,117.045 19.200,116.847 19.200 C 116.320 19.200,109.200 26.237,109.200 26.758 C 109.200 27.001,109.030 27.200,108.823 27.200 C 108.335 27.200,103.600 31.841,103.600 32.319 C 103.600 32.518,103.060 33.246,102.400 33.937 C 101.740 34.628,101.200 35.348,101.200 35.537 C 101.200 35.726,100.660 36.446,100.000 37.137 C 99.340 37.828,98.800 38.582,98.800 38.813 C 98.800 39.044,98.440 39.620,98.000 40.092 C 97.560 40.564,97.200 41.187,97.200 41.475 C 97.200 41.764,97.020 42.000,96.800 42.000 C 96.580 42.000,96.400 42.193,96.400 42.428 C 96.400 42.663,95.857 43.645,95.194 44.609 C 94.530 45.573,93.878 46.911,93.744 47.581 C 93.610 48.252,93.343 48.800,93.150 48.800 C 92.958 48.800,92.800 49.160,92.800 49.600 C 92.800 50.040,92.620 50.400,92.400 50.400 C 92.180 50.400,92.000 50.760,92.000 51.200 C 92.000 51.640,91.820 52.000,91.600 52.000 C 91.380 52.000,91.200 52.360,91.200 52.800 C 91.200 53.240,91.020 53.600,90.800 53.600 C 90.580 53.600,90.400 53.960,90.400 54.400 C 90.400 54.840,90.220 55.200,90.000 55.200 C 89.780 55.200,89.600 55.740,89.600 56.400 C 89.600 57.060,89.420 57.600,89.200 57.600 C 88.980 57.600,88.800 58.140,88.800 58.800 C 88.800 59.460,88.620 60.000,88.400 60.000 C 88.180 60.000,88.000 60.450,88.000 61.000 C 88.000 61.550,87.820 62.000,87.600 62.000 C 87.380 62.000,87.200 62.540,87.200 63.200 C 87.200 63.860,87.020 64.400,86.800 64.400 C 86.580 64.400,86.400 65.120,86.400 66.000 C 86.400 66.880,86.220 67.600,86.000 67.600 C 85.780 67.600,85.600 68.320,85.600 69.200 C 85.600 70.080,85.420 70.800,85.200 70.800 C 84.978 70.800,84.800 71.867,84.800 73.200 C 84.800 74.533,84.622 75.600,84.400 75.600 C 84.167 75.600,84.000 76.933,84.000 78.800 C 84.000 80.667,83.833 82.000,83.600 82.000 C 83.347 82.000,83.200 84.933,83.200 90.000 C 83.200 95.067,83.347 98.000,83.600 98.000 C 83.831 98.000,84.000 99.259,84.000 100.976 C 84.000 102.613,84.180 104.064,84.400 104.200 C 84.620 104.336,84.800 105.326,84.800 106.400 C 84.800 107.474,84.980 108.464,85.200 108.600 C 85.420 108.736,85.600 109.557,85.600 110.424 C 85.600 111.291,85.780 112.000,86.000 112.000 C 86.220 112.000,86.400 112.619,86.400 113.376 C 86.400 114.133,86.580 114.864,86.800 115.000 C 87.020 115.136,87.200 115.777,87.200 116.424 C 87.200 117.071,87.380 117.600,87.600 117.600 C 87.820 117.600,88.000 118.140,88.000 118.800 C 88.000 119.460,88.180 120.000,88.400 120.000 C 88.620 120.000,88.800 120.450,88.800 121.000 C 88.800 121.550,88.980 122.000,89.200 122.000 C 89.420 122.000,89.600 122.450,89.600 123.000 C 89.600 123.550,89.780 124.000,90.000 124.000 C 90.220 124.000,90.400 124.450,90.400 125.000 C 90.400 125.550,90.580 126.000,90.800 126.000 C 91.020 126.000,91.200 126.360,91.200 126.800 C 91.200 127.240,91.380 127.600,91.600 127.600 C 91.820 127.600,92.000 127.960,92.000 128.400 C 92.000 128.840,92.180 129.200,92.400 129.200 C 92.620 129.200,92.800 129.560,92.800 130.000 C 92.800 130.440,92.980 130.800,93.200 130.800 C 93.420 130.800,93.601 131.025,93.602 131.300 C 93.604 132.037,96.937 138.341,97.567 138.800 C 97.718 138.910,98.462 139.896,99.221 140.991 C 99.979 142.085,100.915 143.334,101.300 143.766 C 101.685 144.198,102.000 144.715,102.000 144.915 C 102.000 145.115,102.540 145.783,103.200 146.400 C 103.860 147.017,104.400 147.702,104.400 147.924 C 104.400 148.535,114.532 158.800,115.136 158.800 C 115.426 158.800,116.354 159.520,117.200 160.400 C 118.046 161.280,118.982 162.000,119.280 162.000 C 119.579 162.000,120.083 162.360,120.400 162.800 C 120.717 163.240,121.180 163.600,121.429 163.600 C 121.678 163.600,122.446 164.140,123.137 164.800 C 123.828 165.460,124.664 166.000,124.996 166.000 C 125.328 166.000,125.600 166.180,125.600 166.400 C 125.600 166.620,125.894 166.800,126.253 166.800 C 126.612 166.800,127.197 167.116,127.553 167.503 C 129.510 169.629,132.388 169.033,132.398 166.500 C 132.399 166.225,132.580 166.000,132.800 166.000 C 133.020 166.000,133.200 165.640,133.200 165.200 C 133.200 164.760,133.380 164.400,133.600 164.400 C 133.820 164.400,134.000 164.040,134.000 163.600 C 134.000 163.160,134.180 162.800,134.400 162.800 C 134.620 162.800,134.800 162.522,134.800 162.183 C 134.800 161.844,135.160 161.180,135.600 160.708 C 136.040 160.236,136.400 159.613,136.400 159.325 C 136.400 159.036,136.580 158.800,136.800 158.800 C 137.020 158.800,137.200 158.562,137.200 158.272 C 137.200 157.632,135.394 156.000,134.685 156.000 C 134.406 156.000,133.917 155.640,133.600 155.200 C 133.283 154.760,132.743 154.400,132.400 154.400 C 132.057 154.400,131.517 154.040,131.200 153.600 C 130.883 153.160,130.303 152.800,129.912 152.800 C 129.520 152.800,129.200 152.650,129.200 152.468 C 129.200 152.285,128.705 151.881,128.100 151.569 C 127.495 151.258,126.460 150.441,125.800 149.753 C 125.140 149.064,123.520 147.599,122.200 146.496 C 118.647 143.527,116.800 141.743,116.800 141.281 C 116.800 141.055,115.720 139.773,114.400 138.432 C 113.080 137.092,112.000 135.766,112.000 135.486 C 112.000 135.206,111.640 134.717,111.200 134.400 C 110.760 134.083,110.400 133.569,110.400 133.259 C 110.400 132.948,110.085 132.400,109.700 132.041 C 109.315 131.681,108.662 130.760,108.249 129.994 C 107.836 129.227,107.161 128.010,106.749 127.288 C 106.337 126.566,106.000 125.711,106.000 125.388 C 106.000 125.065,105.820 124.800,105.600 124.800 C 105.380 124.800,105.200 124.440,105.200 124.000 C 105.200 123.560,105.065 123.199,104.900 123.197 C 104.541 123.193,103.600 121.256,103.600 120.520 C 103.600 120.234,103.420 120.000,103.200 120.000 C 102.980 120.000,102.800 119.640,102.800 119.200 C 102.800 118.760,102.620 118.400,102.400 118.400 C 102.180 118.400,102.000 117.860,102.000 117.200 C 102.000 116.540,101.820 116.000,101.600 116.000 C 101.380 116.000,101.200 115.561,101.200 115.024 C 101.200 114.487,101.020 113.936,100.800 113.800 C 100.580 113.664,100.400 113.124,100.400 112.600 C 100.400 112.076,100.220 111.536,100.000 111.400 C 99.780 111.264,99.600 110.713,99.600 110.176 C 99.600 109.639,99.420 109.200,99.200 109.200 C 98.980 109.200,98.800 108.300,98.800 107.200 C 98.800 106.100,98.620 105.200,98.400 105.200 C 98.180 105.200,98.000 104.300,98.000 103.200 C 98.000 102.100,97.820 101.200,97.600 101.200 C 97.362 101.200,97.200 99.675,97.200 97.424 C 97.200 95.337,97.021 93.537,96.800 93.400 C 96.577 93.262,96.400 91.396,96.400 89.176 C 96.400 86.792,96.560 85.200,96.800 85.200 C 97.035 85.200,97.200 83.808,97.200 81.824 C 97.200 79.967,97.380 78.336,97.600 78.200 C 97.820 78.064,98.000 76.973,98.000 75.776 C 98.000 74.579,98.180 73.600,98.400 73.600 C 98.620 73.600,98.800 72.970,98.800 72.200 C 98.800 71.430,98.980 70.800,99.200 70.800 C 99.420 70.800,99.600 70.080,99.600 69.200 C 99.600 68.320,99.780 67.600,100.000 67.600 C 100.220 67.600,100.400 67.060,100.400 66.400 C 100.400 65.740,100.580 65.200,100.800 65.200 C 101.020 65.200,101.200 64.838,101.200 64.395 C 101.200 63.617,101.342 63.231,102.338 61.305 C 102.592 60.813,102.800 60.063,102.800 59.639 C 102.800 59.214,102.936 58.807,103.102 58.733 C 103.268 58.660,104.025 57.340,104.784 55.800 C 105.544 54.260,106.643 52.280,107.228 51.400 C 107.812 50.520,108.417 49.395,108.572 48.900 C 108.727 48.405,109.022 48.000,109.227 48.000 C 109.432 48.000,109.600 47.680,109.600 47.288 C 109.600 46.897,109.960 46.317,110.400 46.000 C 110.840 45.683,111.200 45.175,111.200 44.872 C 111.200 44.569,111.740 43.817,112.400 43.200 C 113.060 42.583,113.600 41.962,113.600 41.820 C 113.600 41.476,125.068 30.000,125.412 30.000 C 125.559 30.000,126.183 29.460,126.800 28.800 C 127.417 28.140,128.137 27.600,128.400 27.600 C 128.663 27.600,129.383 27.060,130.000 26.400 C 130.617 25.740,131.336 25.200,131.599 25.200 C 132.045 25.200,134.354 24.046,134.800 23.600 C 134.910 23.490,135.430 23.158,135.955 22.862 C 136.480 22.567,137.520 21.982,138.267 21.562 C 139.014 21.143,139.889 20.800,140.212 20.800 C 140.535 20.800,140.800 20.620,140.800 20.400 C 140.800 20.180,141.160 20.000,141.600 20.000 C 142.040 20.000,142.400 19.820,142.400 19.600 C 142.400 19.380,142.760 19.200,143.200 19.200 C 143.640 19.200,144.000 19.020,144.000 18.800 C 144.000 18.580,144.439 18.400,144.976 18.400 C 145.513 18.400,146.064 18.220,146.200 18.000 C 146.336 17.780,146.797 17.600,147.224 17.600 C 147.651 17.600,148.000 17.420,148.000 17.200 C 148.000 16.980,148.540 16.800,149.200 16.800 C 149.860 16.800,150.400 16.620,150.400 16.400 C 150.400 16.180,150.929 16.000,151.576 16.000 C 152.223 16.000,152.864 15.820,153.000 15.600 C 153.136 15.380,153.867 15.200,154.624 15.200 C 155.381 15.200,156.000 15.020,156.000 14.800 C 156.000 14.580,156.810 14.400,157.800 14.400 C 158.790 14.400,159.600 14.220,159.600 14.000 C 159.600 13.778,160.667 13.600,162.000 13.600 C 163.333 13.600,164.400 13.422,164.400 13.200 C 164.400 12.655,182.263 12.655,182.600 13.200 C 182.736 13.420,184.007 13.600,185.424 13.600 C 186.875 13.600,188.000 13.775,188.000 14.000 C 188.000 14.220,188.720 14.400,189.600 14.400 C 190.480 14.400,191.200 14.580,191.200 14.800 C 191.200 15.020,191.819 15.200,192.576 15.200 C 193.333 15.200,194.064 15.380,194.200 15.600 C 194.336 15.820,194.889 16.000,195.429 16.000 C 195.969 16.000,196.768 16.180,197.205 16.400 C 197.642 16.620,198.358 16.980,198.795 17.200 C 199.232 17.420,199.952 17.600,200.395 17.600 C 200.838 17.600,201.200 17.780,201.200 18.000 C 201.200 18.220,201.740 18.400,202.400 18.400 C 203.060 18.400,203.600 18.580,203.600 18.800 C 203.600 19.020,203.960 19.200,204.400 19.200 C 204.840 19.200,205.200 19.380,205.200 19.600 C 205.200 19.820,205.560 20.000,206.000 20.000 C 206.440 20.000,206.800 20.180,206.800 20.400 C 206.800 20.620,207.160 20.800,207.600 20.800 C 208.040 20.800,208.400 20.980,208.400 21.200 C 208.400 21.420,208.760 21.600,209.200 21.600 C 209.640 21.600,210.000 21.780,210.000 22.000 C 210.000 22.220,210.193 22.400,210.428 22.400 C 210.663 22.400,211.608 22.915,212.528 23.545 C 213.448 24.175,214.605 24.817,215.100 24.972 C 215.595 25.127,216.000 25.422,216.000 25.627 C 216.000 25.832,216.288 26.000,216.640 26.000 C 216.991 26.000,217.783 26.540,218.400 27.200 C 219.017 27.860,219.723 28.400,219.971 28.400 C 220.219 28.400,221.231 29.210,222.221 30.200 C 223.211 31.190,224.190 32.000,224.397 32.000 C 224.802 32.000,226.019 33.222,229.800 37.424 C 231.120 38.891,232.785 40.695,233.500 41.432 C 234.215 42.170,234.800 42.977,234.800 43.226 C 234.800 43.475,235.340 44.183,236.000 44.800 C 236.660 45.417,237.200 46.169,237.200 46.472 C 237.200 46.775,237.560 47.283,238.000 47.600 C 238.440 47.917,238.800 48.497,238.800 48.888 C 238.800 49.280,238.980 49.600,239.200 49.600 C 239.420 49.600,239.600 49.836,239.600 50.125 C 239.600 50.413,239.960 51.036,240.400 51.508 C 240.840 51.980,241.200 52.644,241.200 52.983 C 241.200 53.322,241.380 53.600,241.600 53.600 C 241.820 53.600,242.000 53.960,242.000 54.400 C 242.000 54.840,242.180 55.200,242.400 55.200 C 242.620 55.200,242.800 55.560,242.800 56.000 C 242.800 56.440,242.960 56.800,243.155 56.800 C 243.351 56.800,243.629 57.430,243.774 58.200 C 243.918 58.970,244.208 59.600,244.418 59.600 C 244.628 59.600,244.800 60.039,244.800 60.576 C 244.800 61.113,244.944 61.642,245.121 61.751 C 245.297 61.860,245.690 62.861,245.993 63.975 C 246.296 65.089,246.692 66.000,246.872 66.000 C 247.053 66.000,247.200 66.619,247.200 67.376 C 247.200 68.133,247.380 68.864,247.600 69.000 C 247.820 69.136,248.000 69.766,248.000 70.400 C 248.000 71.034,248.180 71.664,248.400 71.800 C 248.620 71.936,248.800 72.757,248.800 73.624 C 248.800 74.491,248.980 75.200,249.200 75.200 C 249.422 75.200,249.600 76.259,249.600 77.576 C 249.600 78.883,249.780 80.064,250.000 80.200 C 250.248 80.353,250.400 83.930,250.400 89.600 C 250.400 95.270,250.248 98.847,250.000 99.000 C 249.780 99.136,249.600 100.407,249.600 101.824 C 249.600 103.275,249.425 104.400,249.200 104.400 C 248.980 104.400,248.800 105.120,248.800 106.000 C 248.800 106.880,248.620 107.600,248.400 107.600 C 248.180 107.600,248.000 108.320,248.000 109.200 C 248.000 110.080,247.820 110.800,247.600 110.800 C 247.380 110.800,247.200 111.239,247.200 111.776 C 247.200 112.313,247.020 112.864,246.800 113.000 C 246.580 113.136,246.400 113.676,246.400 114.200 C 246.400 114.724,246.220 115.264,246.000 115.400 C 245.780 115.536,245.600 115.963,245.600 116.348 C 245.600 116.734,245.225 117.826,244.767 118.774 C 244.309 119.723,243.835 121.106,243.715 121.849 C 243.594 122.592,243.339 123.200,243.148 123.200 C 242.956 123.200,242.800 123.560,242.800 124.000 C 242.800 124.440,242.620 124.800,242.400 124.800 C 242.180 124.800,242.000 125.094,242.000 125.453 C 242.000 125.812,241.684 126.397,241.297 126.753 C 240.911 127.109,240.326 127.940,239.997 128.600 C 239.669 129.260,239.085 130.149,238.700 130.575 C 238.315 131.002,238.000 131.547,238.000 131.787 C 238.000 132.027,237.640 132.483,237.200 132.800 C 236.760 133.117,236.400 133.609,236.400 133.892 C 236.400 134.175,235.860 134.972,235.200 135.663 C 234.540 136.354,234.000 137.084,234.000 137.285 C 234.000 137.487,233.139 138.495,232.088 139.526 C 227.058 144.455,227.058 144.429,232.012 149.500 C 236.483 154.077,237.661 154.588,239.009 152.530 C 239.770 151.369,240.488 150.539,243.100 147.802 C 244.035 146.823,244.800 145.819,244.800 145.571 C 244.800 145.323,245.340 144.617,246.000 144.000 C 246.660 143.383,247.200 142.635,247.200 142.336 C 247.200 142.037,247.560 141.568,248.000 141.293 C 248.440 141.018,248.800 140.607,248.800 140.380 C 248.800 140.153,249.160 139.580,249.600 139.108 C 250.040 138.636,250.400 138.013,250.400 137.725 C 250.400 137.436,250.580 137.200,250.800 137.200 C 251.020 137.200,251.200 136.922,251.200 136.583 C 251.200 136.244,251.560 135.580,252.000 135.108 C 252.440 134.636,252.800 134.013,252.800 133.725 C 252.800 133.436,252.980 133.200,253.200 133.200 C 253.420 133.200,253.600 132.840,253.600 132.400 C 253.600 131.960,253.780 131.600,254.000 131.600 C 254.220 131.600,254.400 131.240,254.400 130.800 C 254.400 130.360,254.580 130.000,254.800 130.000 C 255.020 130.000,255.200 129.640,255.200 129.200 C 255.200 128.760,255.380 128.400,255.600 128.400 C 255.820 128.400,256.000 128.147,256.000 127.838 C 256.000 127.529,256.383 126.494,256.850 125.538 C 257.318 124.582,257.835 123.523,258.001 123.185 C 258.166 122.846,258.429 121.812,258.585 120.887 C 258.742 119.961,259.034 119.103,259.235 118.978 C 259.436 118.854,259.600 118.313,259.600 117.776 C 259.600 117.239,259.780 116.800,260.000 116.800 C 260.220 116.800,260.400 116.080,260.400 115.200 C 260.400 114.320,260.580 113.600,260.800 113.600 C 261.020 113.600,261.200 112.880,261.200 112.000 C 261.200 111.120,261.380 110.400,261.600 110.400 C 261.820 110.400,262.000 109.691,262.000 108.824 C 262.000 107.957,262.180 107.136,262.400 107.000 C 262.620 106.864,262.800 105.694,262.800 104.400 C 262.800 103.106,262.980 101.936,263.200 101.800 C 263.435 101.655,263.600 99.329,263.600 96.176 C 263.600 92.859,263.753 90.800,264.000 90.800 C 264.220 90.800,264.400 90.350,264.400 89.800 C 264.400 89.250,264.220 88.800,264.000 88.800 C 263.753 88.800,263.600 86.741,263.600 83.424 C 263.600 80.271,263.435 77.945,263.200 77.800 C 262.980 77.664,262.800 76.494,262.800 75.200 C 262.800 73.906,262.620 72.736,262.400 72.600 C 262.180 72.464,262.000 71.643,262.000 70.776 C 262.000 69.909,261.820 69.200,261.600 69.200 C 261.380 69.200,261.200 68.480,261.200 67.600 C 261.200 66.720,261.020 66.000,260.800 66.000 C 260.580 66.000,260.400 65.280,260.400 64.400 C 260.400 63.520,260.220 62.800,260.000 62.800 C 259.780 62.800,259.600 62.361,259.600 61.824 C 259.600 61.287,259.444 60.751,259.253 60.632 C 259.061 60.514,258.788 59.686,258.645 58.791 C 258.502 57.897,258.208 56.813,257.992 56.383 C 257.777 55.952,257.420 55.242,257.200 54.805 C 256.980 54.368,256.800 53.738,256.800 53.405 C 256.800 53.072,256.620 52.800,256.400 52.800 C 256.180 52.800,256.000 52.440,256.000 52.000 C 256.000 51.560,255.820 51.200,255.600 51.200 C 255.380 51.200,255.200 50.840,255.200 50.400 C 255.200 49.960,255.020 49.600,254.800 49.600 C 254.580 49.600,254.400 49.240,254.400 48.800 C 254.400 48.360,254.220 48.000,254.000 48.000 C 253.780 48.000,253.600 47.640,253.600 47.200 C 253.600 46.760,253.464 46.400,253.298 46.400 C 253.131 46.400,252.740 45.815,252.428 45.100 C 252.116 44.385,251.532 43.509,251.130 43.153 C 250.729 42.797,250.400 42.212,250.400 41.853 C 250.400 41.494,250.220 41.200,250.000 41.200 C 249.780 41.200,249.600 40.880,249.600 40.488 C 249.600 40.097,249.240 39.517,248.800 39.200 C 248.360 38.883,248.000 38.420,248.000 38.171 C 248.000 37.922,247.460 37.154,246.800 36.463 C 246.140 35.772,245.600 35.047,245.600 34.852 C 245.600 34.656,244.925 33.794,244.100 32.936 C 243.275 32.078,242.127 30.748,241.550 29.980 C 240.033 27.964,234.839 22.744,233.200 21.590 C 232.430 21.048,231.103 19.928,230.252 19.102 C 229.400 18.276,228.521 17.600,228.299 17.600 C 228.076 17.600,227.603 17.285,227.247 16.899 C 226.345 15.923,221.767 12.800,221.236 12.800 C 220.996 12.800,220.800 12.658,220.800 12.484 C 220.800 12.062,216.699 10.000,215.860 10.000 C 215.497 10.000,215.200 9.820,215.200 9.600 C 215.200 9.380,214.840 9.200,214.400 9.200 C 213.960 9.200,213.600 9.020,213.600 8.800 C 213.600 8.580,213.240 8.400,212.800 8.400 C 212.360 8.400,212.000 8.220,212.000 8.000 C 212.000 7.780,211.640 7.600,211.200 7.600 C 210.760 7.600,210.400 7.420,210.400 7.200 C 210.400 6.980,210.040 6.800,209.600 6.800 C 209.160 6.800,208.800 6.620,208.800 6.400 C 208.800 6.180,208.350 6.000,207.800 6.000 C 207.250 6.000,206.800 5.820,206.800 5.600 C 206.800 5.380,206.350 5.200,205.800 5.200 C 205.250 5.200,204.800 5.020,204.800 4.800 C 204.800 4.580,204.350 4.400,203.800 4.400 C 203.250 4.400,202.800 4.220,202.800 4.000 C 202.800 3.780,202.260 3.600,201.600 3.600 C 200.940 3.600,200.400 3.420,200.400 3.200 C 200.400 2.980,199.680 2.800,198.800 2.800 C 197.920 2.800,197.200 2.620,197.200 2.400 C 197.200 2.180,196.480 2.000,195.600 2.000 C 194.720 2.000,194.000 1.820,194.000 1.600 C 194.000 1.380,193.226 1.200,192.280 1.200 C 191.334 1.200,190.338 0.978,190.066 0.706 C 189.573 0.213,165.556 -0.129,159.800 0.275 M168.400 30.400 C 168.070 30.613,166.686 30.791,165.324 30.794 C 163.962 30.797,162.736 30.980,162.600 31.200 C 162.464 31.420,161.643 31.600,160.776 31.600 C 159.909 31.600,159.200 31.780,159.200 32.000 C 159.200 32.220,158.480 32.400,157.600 32.400 C 156.720 32.400,156.000 32.580,156.000 32.800 C 156.000 33.020,155.460 33.200,154.800 33.200 C 154.140 33.200,153.600 33.380,153.600 33.600 C 153.600 33.820,153.161 34.000,152.624 34.000 C 152.087 34.000,151.536 34.180,151.400 34.400 C 151.264 34.620,150.803 34.800,150.376 34.800 C 149.949 34.800,149.600 34.980,149.600 35.200 C 149.600 35.420,149.240 35.600,148.800 35.600 C 148.360 35.600,148.000 35.780,148.000 36.000 C 148.000 36.220,147.640 36.400,147.200 36.400 C 146.760 36.400,146.400 36.580,146.400 36.800 C 146.400 37.020,146.040 37.200,145.600 37.200 C 145.160 37.200,144.800 37.380,144.800 37.600 C 144.800 37.820,144.530 38.000,144.200 38.000 C 143.870 38.000,143.600 38.180,143.600 38.400 C 143.600 38.620,143.364 38.800,143.075 38.800 C 142.787 38.800,142.164 39.160,141.692 39.600 C 141.220 40.040,140.628 40.400,140.377 40.400 C 140.126 40.400,139.417 40.940,138.800 41.600 C 138.183 42.260,137.474 42.800,137.223 42.800 C 136.320 42.800,127.738 51.224,126.800 53.030 C 126.470 53.666,125.705 54.711,125.100 55.352 C 124.495 55.994,124.000 56.762,124.000 57.059 C 124.000 57.357,123.820 57.600,123.600 57.600 C 123.380 57.600,123.200 57.920,123.200 58.312 C 123.200 58.703,122.840 59.283,122.400 59.600 C 121.960 59.917,121.600 60.482,121.600 60.855 C 121.600 61.228,121.465 61.593,121.300 61.667 C 121.135 61.740,120.575 62.700,120.056 63.800 C 119.537 64.900,118.952 66.113,118.756 66.495 C 118.560 66.877,118.400 67.462,118.400 67.795 C 118.400 68.128,118.220 68.400,118.000 68.400 C 117.780 68.400,117.600 68.940,117.600 69.600 C 117.600 70.260,117.420 70.800,117.200 70.800 C 116.980 70.800,116.800 71.329,116.800 71.976 C 116.800 72.623,116.620 73.264,116.400 73.400 C 116.180 73.536,116.000 74.267,116.000 75.024 C 116.000 75.781,115.820 76.400,115.600 76.400 C 115.380 76.400,115.200 77.379,115.200 78.576 C 115.200 79.773,115.020 80.864,114.800 81.000 C 114.554 81.152,114.400 84.530,114.400 89.800 C 114.400 95.070,114.554 98.448,114.800 98.600 C 115.020 98.736,115.200 99.737,115.200 100.824 C 115.200 101.911,115.380 102.800,115.600 102.800 C 115.820 102.800,116.000 103.520,116.000 104.400 C 116.000 105.280,116.180 106.000,116.400 106.000 C 116.620 106.000,116.800 106.529,116.800 107.176 C 116.800 107.823,116.944 108.442,117.121 108.551 C 117.297 108.660,117.690 109.661,117.993 110.775 C 118.296 111.889,118.692 112.800,118.872 112.800 C 119.053 112.800,119.200 113.160,119.200 113.600 C 119.200 114.040,119.380 114.400,119.600 114.400 C 119.820 114.400,120.000 114.760,120.000 115.200 C 120.000 115.640,120.180 116.000,120.400 116.000 C 120.620 116.000,120.800 116.360,120.800 116.800 C 120.800 117.240,120.980 117.600,121.200 117.600 C 121.420 117.600,121.600 117.960,121.600 118.400 C 121.600 118.840,121.780 119.200,122.000 119.200 C 122.220 119.200,122.400 119.478,122.400 119.817 C 122.400 120.156,122.760 120.820,123.200 121.292 C 123.640 121.764,124.000 122.387,124.000 122.675 C 124.000 122.964,124.180 123.200,124.400 123.200 C 124.620 123.200,124.800 123.398,124.800 123.640 C 124.800 123.881,125.295 124.556,125.900 125.140 C 126.505 125.723,127.255 126.695,127.568 127.300 C 128.241 128.605,128.815 128.690,129.600 127.600 C 129.917 127.160,130.415 126.800,130.706 126.800 C 130.998 126.800,131.664 126.395,132.188 125.900 C 132.711 125.405,133.810 124.460,134.631 123.800 C 139.357 119.998,139.450 119.767,137.236 117.307 C 136.886 116.918,136.345 116.105,136.032 115.500 C 135.720 114.895,135.315 114.400,135.132 114.400 C 134.950 114.400,134.800 114.212,134.800 113.983 C 134.800 113.754,134.440 113.180,134.000 112.708 C 133.560 112.236,133.200 111.523,133.200 111.125 C 133.200 110.726,133.020 110.400,132.800 110.400 C 132.580 110.400,132.400 110.051,132.400 109.624 C 132.400 109.197,132.220 108.736,132.000 108.600 C 131.780 108.464,131.600 108.003,131.600 107.576 C 131.600 107.149,131.420 106.800,131.200 106.800 C 130.980 106.800,130.800 106.440,130.800 106.000 C 130.800 105.560,130.620 105.200,130.400 105.200 C 130.180 105.200,130.000 104.660,130.000 104.000 C 130.000 103.340,129.820 102.800,129.600 102.800 C 129.380 102.800,129.200 102.080,129.200 101.200 C 129.200 100.320,129.020 99.600,128.800 99.600 C 128.580 99.600,128.400 98.711,128.400 97.624 C 128.400 96.537,128.220 95.536,128.000 95.400 C 127.762 95.253,127.600 92.729,127.600 89.176 C 127.600 85.459,127.751 83.200,128.000 83.200 C 128.220 83.200,128.400 82.300,128.400 81.200 C 128.400 80.100,128.580 79.200,128.800 79.200 C 129.020 79.200,129.200 78.480,129.200 77.600 C 129.200 76.720,129.380 76.000,129.600 76.000 C 129.820 76.000,130.000 75.728,130.000 75.395 C 130.000 75.062,130.161 74.477,130.358 74.095 C 130.555 73.713,131.319 72.140,132.056 70.600 C 132.793 69.060,133.532 67.740,133.698 67.667 C 133.864 67.593,134.000 67.188,134.000 66.767 C 134.000 66.345,134.180 66.000,134.400 66.000 C 134.620 66.000,134.800 65.775,134.801 65.500 C 134.801 65.225,135.341 64.370,136.000 63.600 C 136.659 62.830,137.199 62.042,137.199 61.850 C 137.200 61.365,145.477 53.200,145.967 53.200 C 146.185 53.200,146.814 52.750,147.364 52.200 C 147.914 51.650,148.559 51.200,148.799 51.200 C 149.038 51.200,149.620 50.840,150.092 50.400 C 150.564 49.960,151.187 49.600,151.475 49.600 C 151.764 49.600,152.000 49.420,152.000 49.200 C 152.000 48.980,152.360 48.800,152.800 48.800 C 153.240 48.800,153.600 48.620,153.600 48.400 C 153.600 48.180,153.960 48.000,154.400 48.000 C 154.840 48.000,155.200 47.820,155.200 47.600 C 155.200 47.380,155.650 47.200,156.200 47.200 C 156.750 47.200,157.200 47.020,157.200 46.800 C 157.200 46.580,157.560 46.400,158.000 46.400 C 158.440 46.400,158.800 46.220,158.800 46.000 C 158.800 45.780,159.520 45.600,160.400 45.600 C 161.280 45.600,162.000 45.420,162.000 45.200 C 162.000 44.980,162.720 44.800,163.600 44.800 C 164.480 44.800,165.200 44.620,165.200 44.400 C 165.200 44.170,166.440 44.000,168.120 44.000 C 169.726 44.000,171.239 43.801,171.481 43.559 C 171.762 43.278,172.698 43.212,174.061 43.377 C 175.238 43.520,177.595 43.732,179.300 43.849 C 181.005 43.965,182.400 44.227,182.400 44.430 C 182.400 44.634,183.120 44.800,184.000 44.800 C 184.880 44.800,185.600 44.980,185.600 45.200 C 185.600 45.420,186.140 45.600,186.800 45.600 C 187.460 45.600,188.000 45.780,188.000 46.000 C 188.000 46.220,188.540 46.400,189.200 46.400 C 189.860 46.400,190.400 46.580,190.400 46.800 C 190.400 47.020,190.760 47.200,191.200 47.200 C 191.640 47.200,192.000 47.380,192.000 47.600 C 192.000 47.820,192.360 48.000,192.800 48.000 C 193.240 48.000,193.600 48.180,193.600 48.400 C 193.600 48.620,193.960 48.800,194.400 48.800 C 194.840 48.800,195.200 48.980,195.200 49.200 C 195.200 49.420,195.470 49.600,195.800 49.600 C 196.130 49.600,196.400 49.780,196.400 50.000 C 196.400 50.220,196.760 50.400,197.200 50.400 C 197.640 50.400,198.000 50.550,198.000 50.732 C 198.000 50.915,198.495 51.319,199.100 51.630 C 199.705 51.940,200.470 52.474,200.800 52.816 C 201.130 53.158,202.030 53.877,202.800 54.414 C 203.570 54.950,204.970 56.157,205.911 57.095 C 206.851 58.033,207.796 58.800,208.011 58.800 C 208.225 58.800,208.400 59.025,208.400 59.300 C 208.401 59.733,208.916 60.461,210.794 62.685 C 211.019 62.952,211.412 63.627,211.666 64.185 C 211.920 64.743,212.280 65.200,212.464 65.200 C 212.649 65.200,212.800 65.560,212.800 66.000 C 212.800 66.440,212.954 66.800,213.143 66.800 C 213.332 66.800,213.913 67.790,214.436 69.000 C 214.958 70.210,215.524 71.200,215.693 71.200 C 215.862 71.200,216.000 71.549,216.000 71.976 C 216.000 72.403,216.180 72.864,216.400 73.000 C 216.620 73.136,216.800 73.687,216.800 74.224 C 216.800 74.761,216.980 75.200,217.200 75.200 C 217.420 75.200,217.600 75.740,217.600 76.400 C 217.600 77.060,217.780 77.600,218.000 77.600 C 218.220 77.600,218.400 78.320,218.400 79.200 C 218.400 80.080,218.580 80.800,218.800 80.800 C 219.025 80.800,219.200 81.925,219.200 83.376 C 219.200 84.793,219.380 86.064,219.600 86.200 C 219.820 86.336,220.000 87.506,220.000 88.800 C 220.000 90.094,219.820 91.264,219.600 91.400 C 219.380 91.536,219.200 93.066,219.200 94.800 C 219.200 96.534,219.020 98.064,218.800 98.200 C 218.580 98.336,218.400 99.067,218.400 99.824 C 218.400 100.581,218.220 101.200,218.000 101.200 C 217.780 101.200,217.600 101.920,217.600 102.800 C 217.600 103.680,217.420 104.400,217.200 104.400 C 216.980 104.400,216.800 104.749,216.800 105.176 C 216.800 105.603,216.620 106.064,216.400 106.200 C 216.180 106.336,216.000 106.887,216.000 107.424 C 216.000 107.961,215.820 108.400,215.600 108.400 C 215.380 108.400,215.200 108.760,215.200 109.200 C 215.200 109.640,215.064 110.000,214.898 110.000 C 214.731 110.000,214.336 110.585,214.020 111.300 C 213.703 112.015,213.120 112.949,212.722 113.375 C 212.325 113.802,212.000 114.387,212.000 114.675 C 212.000 114.964,211.840 115.200,211.644 115.200 C 211.330 115.200,209.443 118.617,209.412 119.241 C 209.392 119.651,210.970 121.600,211.322 121.600 C 211.504 121.600,212.312 122.221,213.117 122.981 C 213.922 123.740,215.035 124.594,215.590 124.878 C 216.146 125.162,216.891 125.711,217.247 126.097 C 217.603 126.484,218.098 126.800,218.347 126.800 C 218.596 126.800,218.800 126.963,218.800 127.162 C 218.800 127.362,219.249 127.317,219.797 127.062 C 220.345 126.808,220.795 126.471,220.797 126.314 C 220.799 126.157,221.340 125.413,222.000 124.661 C 222.660 123.909,223.200 123.191,223.200 123.065 C 223.200 122.939,223.650 122.172,224.200 121.362 C 224.750 120.551,225.200 119.553,225.200 119.144 C 225.200 118.735,225.380 118.400,225.600 118.400 C 225.820 118.400,226.000 118.040,226.000 117.600 C 226.000 117.160,226.135 116.799,226.300 116.797 C 226.659 116.793,227.600 114.856,227.600 114.120 C 227.600 113.834,227.780 113.600,228.000 113.600 C 228.220 113.600,228.400 113.240,228.400 112.800 C 228.400 112.360,228.580 112.000,228.800 112.000 C 229.020 112.000,229.200 111.460,229.200 110.800 C 229.200 110.140,229.380 109.600,229.600 109.600 C 229.820 109.600,230.000 109.161,230.000 108.624 C 230.000 108.087,230.180 107.536,230.400 107.400 C 230.620 107.264,230.800 106.724,230.800 106.200 C 230.800 105.676,230.980 105.136,231.200 105.000 C 231.420 104.864,231.600 103.953,231.600 102.976 C 231.600 101.999,231.780 101.200,232.000 101.200 C 232.229 101.200,232.400 100.000,232.400 98.400 C 232.400 96.800,232.571 95.600,232.800 95.600 C 233.049 95.600,233.200 93.341,233.200 89.624 C 233.200 86.071,233.038 83.547,232.800 83.400 C 232.580 83.264,232.400 82.094,232.400 80.800 C 232.400 79.506,232.220 78.336,232.000 78.200 C 231.780 78.064,231.600 77.243,231.600 76.376 C 231.600 75.509,231.420 74.800,231.200 74.800 C 230.980 74.800,230.800 74.080,230.800 73.200 C 230.800 72.320,230.620 71.600,230.400 71.600 C 230.180 71.600,230.000 71.161,230.000 70.624 C 230.000 70.087,229.820 69.536,229.600 69.400 C 229.380 69.264,229.200 68.803,229.200 68.376 C 229.200 67.949,229.020 67.600,228.800 67.600 C 228.580 67.600,228.400 67.060,228.400 66.400 C 228.400 65.740,228.220 65.200,228.000 65.200 C 227.780 65.200,227.600 64.855,227.600 64.433 C 227.600 64.012,227.465 63.607,227.300 63.533 C 227.135 63.460,226.460 62.321,225.800 61.001 C 225.140 59.682,224.387 58.376,224.126 58.099 C 223.866 57.822,223.538 57.236,223.399 56.798 C 223.260 56.359,222.990 56.000,222.800 56.000 C 222.610 56.000,222.343 55.649,222.206 55.220 C 222.070 54.792,221.428 53.873,220.780 53.178 C 220.131 52.484,219.600 51.779,219.600 51.613 C 219.600 50.896,211.925 43.600,211.171 43.600 C 210.924 43.600,210.217 43.060,209.600 42.400 C 208.983 41.740,208.281 41.200,208.040 41.200 C 207.798 41.200,207.600 41.020,207.600 40.800 C 207.600 40.580,207.330 40.400,207.000 40.400 C 206.670 40.400,206.400 40.220,206.400 40.000 C 206.400 39.780,206.130 39.600,205.800 39.600 C 205.470 39.600,205.200 39.420,205.200 39.200 C 205.200 38.980,204.880 38.800,204.488 38.800 C 204.097 38.800,203.517 38.440,203.200 38.000 C 202.883 37.560,202.303 37.200,201.912 37.200 C 201.520 37.200,201.200 37.020,201.200 36.800 C 201.200 36.580,200.840 36.400,200.400 36.400 C 199.960 36.400,199.600 36.220,199.600 36.000 C 199.600 35.780,199.251 35.600,198.824 35.600 C 198.397 35.600,197.936 35.420,197.800 35.200 C 197.664 34.980,197.113 34.800,196.576 34.800 C 196.039 34.800,195.600 34.620,195.600 34.400 C 195.600 34.180,195.238 34.000,194.795 34.000 C 194.352 34.000,193.632 33.820,193.195 33.600 C 192.758 33.380,192.042 33.020,191.605 32.800 C 191.168 32.580,190.268 32.400,189.605 32.400 C 188.942 32.400,188.400 32.220,188.400 32.000 C 188.400 31.780,187.601 31.600,186.624 31.600 C 185.647 31.600,184.736 31.420,184.600 31.200 C 184.464 30.980,183.204 30.800,181.800 30.800 C 180.396 30.800,179.136 30.620,179.000 30.400 C 178.680 29.882,169.201 29.882,168.400 30.400 " stroke="none" fill="#1ca4c4" fill-rule="evenodd"></path><path id="path1" d="M142.818 240.264 C 142.837 273.225,142.764 272.124,145.113 275.091 C 146.368 276.674,150.071 278.800,151.575 278.800 L 152.400 278.800 152.400 245.624 C 152.400 223.582,152.264 212.363,151.993 212.196 C 151.770 212.058,151.686 211.784,151.807 211.588 C 151.929 211.392,151.397 211.281,150.626 211.342 C 149.506 211.430,149.312 211.347,149.661 210.926 C 149.995 210.524,149.922 210.396,149.349 210.381 C 148.937 210.371,147.295 210.265,145.700 210.145 L 142.800 209.929 142.818 240.264 " stroke="none" fill="#e4bc94" fill-rule="evenodd"></path><path id="path2" d="M168.930 68.913 C 168.814 69.101,168.467 69.158,168.160 69.040 C 167.852 68.922,167.600 69.010,167.600 69.236 C 167.600 69.462,167.425 69.539,167.211 69.407 C 166.998 69.275,166.368 69.465,165.811 69.829 C 165.255 70.194,164.800 70.353,164.800 70.184 C 164.800 70.015,164.451 70.192,164.025 70.577 C 163.590 70.971,163.037 71.147,162.763 70.977 C 162.453 70.785,162.380 70.844,162.562 71.138 C 162.719 71.392,162.640 71.600,162.388 71.600 C 162.135 71.600,161.571 72.005,161.134 72.500 C 160.697 72.995,160.462 73.162,160.611 72.870 C 160.831 72.443,160.735 72.434,160.115 72.821 C 159.692 73.085,159.178 73.683,158.973 74.151 C 158.768 74.618,158.195 75.178,157.700 75.395 C 157.204 75.612,156.606 76.375,156.370 77.089 C 156.135 77.804,155.747 78.509,155.509 78.656 C 155.237 78.825,155.184 78.716,155.368 78.362 C 155.528 78.053,155.378 78.146,155.035 78.570 C 154.681 79.005,154.487 79.788,154.587 80.370 C 154.760 81.374,154.748 81.380,154.132 80.600 C 153.515 79.819,153.506 79.824,153.735 80.785 C 153.883 81.405,153.734 82.031,153.335 82.472 C 152.986 82.858,152.793 83.531,152.907 83.968 C 153.022 84.404,152.923 84.826,152.689 84.904 C 152.455 84.982,152.234 85.432,152.200 85.904 C 152.165 86.377,152.304 86.660,152.508 86.533 C 152.713 86.407,152.684 86.669,152.445 87.116 C 151.680 88.546,151.831 211.371,152.600 212.544 C 153.129 213.352,153.192 217.550,153.102 246.233 L 153.000 279.000 151.100 279.122 C 149.957 279.195,149.200 279.076,149.200 278.822 C 149.200 278.590,148.922 278.400,148.583 278.400 C 148.244 278.400,147.580 278.040,147.108 277.600 C 146.636 277.160,146.058 276.797,145.825 276.793 C 145.155 276.781,142.800 272.916,142.800 271.828 C 142.800 271.289,142.620 270.736,142.400 270.600 C 142.139 270.439,142.000 259.920,142.000 240.348 C 142.000 214.877,141.914 210.257,141.429 209.771 C 140.768 209.110,140.000 209.018,140.000 209.600 C 140.000 209.820,139.021 210.000,137.824 210.000 C 136.627 210.000,135.527 210.195,135.380 210.432 C 135.231 210.673,134.673 210.755,134.123 210.616 C 133.443 210.446,133.220 210.509,133.411 210.818 C 133.594 211.114,133.365 211.227,132.745 211.147 C 131.591 210.998,130.691 211.500,131.055 212.089 C 131.209 212.339,131.139 212.409,130.889 212.255 C 130.651 212.108,130.330 212.189,130.178 212.436 C 129.976 212.763,129.819 212.755,129.603 212.405 C 129.410 212.093,129.214 212.290,129.045 212.962 C 128.871 213.655,128.514 214.000,127.969 214.000 C 127.520 214.000,127.264 214.180,127.400 214.400 C 127.536 214.620,127.451 214.800,127.211 214.800 C 126.971 214.800,126.656 215.115,126.510 215.500 C 126.068 216.667,125.307 217.282,125.028 216.696 C 124.898 216.423,124.863 216.592,124.950 217.070 C 125.048 217.606,124.934 217.873,124.654 217.765 C 124.403 217.669,123.960 217.971,123.670 218.437 C 123.231 219.139,123.231 219.231,123.670 218.973 C 123.981 218.791,123.932 218.980,123.552 219.431 C 123.196 219.854,122.994 220.450,123.104 220.756 C 123.215 221.065,123.124 221.200,122.897 221.060 C 122.674 220.922,122.397 221.167,122.283 221.605 C 122.154 222.096,122.234 222.302,122.491 222.143 C 122.721 222.002,122.479 222.467,121.954 223.176 C 120.898 224.605,120.455 230.682,121.364 231.294 C 121.663 231.495,121.643 231.590,121.300 231.594 C 121.025 231.597,120.800 231.960,120.800 232.400 C 120.800 232.840,120.980 233.200,121.200 233.200 C 121.420 233.200,121.579 233.875,121.553 234.700 C 121.506 236.193,121.504 236.194,121.200 235.000 L 120.895 233.800 120.847 235.100 C 120.821 235.815,120.980 236.400,121.200 236.400 C 121.420 236.400,121.597 236.715,121.594 237.100 C 121.589 237.702,121.530 237.716,121.176 237.200 C 120.834 236.701,120.775 236.735,120.828 237.400 C 120.992 239.449,120.782 240.836,120.348 240.568 C 120.072 240.397,119.974 240.504,120.096 240.844 C 120.206 241.150,120.051 242.004,119.751 242.742 C 119.451 243.481,119.300 244.239,119.416 244.426 C 119.737 244.946,118.723 246.346,118.178 246.136 C 117.910 246.033,117.580 246.425,117.430 247.024 C 117.282 247.614,116.889 248.368,116.557 248.700 C 116.225 249.032,116.058 249.575,116.186 249.908 C 116.376 250.402,116.310 250.423,115.826 250.021 C 115.333 249.612,115.189 249.704,114.974 250.562 C 114.826 251.149,114.531 251.481,114.289 251.332 C 114.029 251.171,113.956 251.310,114.102 251.688 C 114.246 252.064,113.950 252.647,113.353 253.166 C 112.805 253.642,112.493 254.226,112.649 254.480 C 112.835 254.780,112.706 254.850,112.270 254.682 C 111.863 254.526,111.646 254.615,111.705 254.914 C 111.758 255.188,111.476 255.345,111.060 255.273 C 110.616 255.197,110.425 255.317,110.583 255.573 C 110.729 255.808,110.657 256.000,110.424 256.000 C 110.191 256.000,110.000 256.178,110.000 256.395 C 110.000 256.767,109.240 257.815,108.100 259.016 C 107.825 259.306,107.600 259.725,107.600 259.948 C 107.600 260.171,107.392 260.481,107.138 260.638 C 106.852 260.815,106.785 260.748,106.962 260.462 C 107.119 260.208,107.153 260.000,107.038 260.000 C 106.922 260.000,106.624 260.382,106.374 260.848 C 106.018 261.514,106.028 261.630,106.422 261.386 C 106.747 261.186,106.823 261.239,106.638 261.538 C 106.481 261.792,106.093 262.000,105.776 262.000 C 105.459 262.000,105.245 262.225,105.300 262.500 C 105.355 262.775,105.175 262.955,104.900 262.900 C 104.625 262.845,104.400 263.160,104.400 263.600 C 104.400 264.040,104.175 264.403,103.900 264.406 C 103.567 264.410,103.600 264.542,104.000 264.800 C 104.400 265.058,104.433 265.190,104.100 265.194 C 103.825 265.197,103.621 265.335,103.647 265.500 C 103.809 266.521,103.548 267.217,103.100 266.959 C 102.825 266.801,102.729 266.814,102.886 266.988 C 103.043 267.163,102.965 267.687,102.713 268.153 C 102.460 268.619,102.230 269.689,102.202 270.530 C 102.173 271.375,101.892 272.223,101.575 272.424 C 101.106 272.720,101.134 272.789,101.724 272.794 C 102.122 272.797,102.334 272.983,102.196 273.207 C 102.058 273.430,101.792 273.518,101.604 273.403 C 101.193 273.149,101.291 278.405,101.710 279.066 C 101.872 279.322,101.779 279.623,101.502 279.735 C 101.133 279.885,101.121 280.027,101.456 280.270 C 101.706 280.451,102.002 281.278,102.113 282.107 C 102.223 282.936,102.479 283.836,102.680 284.107 C 102.882 284.378,103.016 285.005,102.978 285.500 C 102.940 285.995,103.134 286.400,103.408 286.400 C 103.970 286.400,104.515 287.793,104.424 289.000 C 104.381 289.570,104.464 289.653,104.713 289.289 C 104.970 288.911,105.185 289.049,105.534 289.814 C 105.804 290.407,105.834 290.744,105.603 290.602 C 105.381 290.465,105.200 290.543,105.200 290.776 C 105.200 291.009,105.482 291.200,105.827 291.200 C 106.284 291.200,106.381 291.430,106.184 292.050 C 106.036 292.518,106.072 292.803,106.264 292.684 C 106.456 292.565,106.818 292.903,107.069 293.435 C 107.413 294.164,107.412 294.344,107.063 294.171 C 106.808 294.044,106.947 294.222,107.371 294.566 C 107.795 294.910,108.028 295.305,107.890 295.443 C 107.751 295.582,107.892 295.949,108.202 296.259 C 108.512 296.569,108.664 297.088,108.540 297.412 C 108.416 297.735,108.514 298.000,108.757 298.000 C 109.001 298.000,109.200 298.341,109.200 298.757 C 109.200 299.174,109.467 299.617,109.793 299.742 C 110.161 299.883,110.287 300.229,110.125 300.650 C 109.934 301.148,110.007 301.243,110.395 301.003 C 110.793 300.757,110.870 300.891,110.700 301.538 C 110.576 302.013,110.619 302.312,110.795 302.203 C 111.119 302.003,111.781 303.144,111.664 303.700 C 111.629 303.865,111.780 304.000,112.000 304.000 C 112.220 304.000,112.400 304.461,112.400 305.024 C 112.400 305.587,112.568 305.944,112.772 305.817 C 112.977 305.691,113.258 305.770,113.396 305.993 C 113.534 306.217,113.412 306.403,113.124 306.406 C 112.707 306.411,112.710 306.482,113.143 306.756 C 113.540 307.008,113.561 307.177,113.222 307.386 C 112.907 307.581,113.069 307.948,113.729 308.536 C 114.261 309.011,114.663 309.770,114.621 310.223 C 114.547 311.020,115.263 312.026,115.892 312.008 C 116.061 312.004,116.200 312.332,116.200 312.739 C 116.200 313.145,116.423 313.746,116.697 314.075 C 116.970 314.404,117.075 314.792,116.930 314.937 C 116.785 315.082,116.896 315.200,117.176 315.200 C 117.472 315.200,117.586 315.460,117.447 315.821 C 117.293 316.223,117.370 316.342,117.668 316.158 C 117.981 315.964,118.053 316.155,117.894 316.762 C 117.749 317.315,117.865 317.727,118.202 317.856 C 118.499 317.970,118.676 318.405,118.596 318.823 C 118.515 319.241,118.646 319.705,118.886 319.853 C 119.167 320.027,119.208 319.936,119.000 319.600 C 118.784 319.251,118.833 319.173,119.145 319.366 C 119.402 319.525,119.521 319.804,119.408 319.986 C 119.125 320.446,120.189 322.877,120.527 322.540 C 120.677 322.390,120.800 322.822,120.800 323.500 C 120.800 324.481,121.025 324.815,121.900 325.135 C 122.505 325.356,122.781 325.551,122.513 325.568 C 121.939 325.606,122.247 326.680,123.123 327.700 C 123.453 328.085,123.584 328.400,123.413 328.400 C 123.242 328.400,123.349 328.705,123.651 329.077 C 124.124 329.659,124.117 329.711,123.600 329.447 C 123.243 329.265,123.280 329.371,123.694 329.710 C 124.075 330.023,124.270 330.396,124.127 330.540 C 123.984 330.683,124.087 330.800,124.357 330.800 C 124.627 330.800,124.736 330.980,124.600 331.200 C 124.464 331.420,124.538 331.600,124.764 331.600 C 124.990 331.600,125.068 331.877,124.938 332.216 C 124.788 332.609,124.902 332.790,125.251 332.716 C 125.587 332.645,125.753 332.879,125.678 333.318 C 125.611 333.713,125.971 334.402,126.478 334.849 C 126.985 335.295,127.175 335.547,126.900 335.407 C 126.625 335.267,126.400 335.324,126.400 335.534 C 126.400 335.743,126.689 336.025,127.042 336.161 C 127.408 336.301,127.585 336.663,127.454 337.003 C 127.328 337.332,127.389 337.600,127.590 337.600 C 127.790 337.600,127.885 337.956,127.802 338.392 C 127.718 338.827,127.846 339.305,128.086 339.453 C 128.367 339.627,128.408 339.536,128.200 339.200 C 128.000 338.877,128.034 338.774,128.287 338.930 C 128.512 339.069,128.805 339.727,128.938 340.392 C 129.080 341.102,129.431 341.600,129.790 341.600 C 130.126 341.600,130.422 341.780,130.450 342.000 C 130.546 342.765,130.631 343.005,131.128 343.900 C 131.403 344.395,131.886 344.800,132.202 344.800 C 132.525 344.800,132.682 345.041,132.563 345.352 C 132.447 345.655,132.814 346.267,133.379 346.712 C 133.943 347.156,134.344 347.763,134.268 348.060 C 134.193 348.357,134.207 348.465,134.299 348.300 C 134.681 347.617,135.234 348.062,134.984 348.850 C 134.809 349.402,134.863 349.608,135.138 349.438 C 135.371 349.294,136.216 349.812,137.015 350.588 C 137.815 351.365,138.727 352.000,139.043 352.000 C 139.359 352.000,139.822 352.450,140.073 353.000 C 140.323 353.550,140.750 354.000,141.021 354.000 C 141.293 354.000,141.622 354.281,141.754 354.625 C 141.891 354.981,142.198 355.125,142.465 354.960 C 142.770 354.771,142.857 354.875,142.712 355.253 C 142.564 355.638,142.765 355.857,143.304 355.898 C 143.752 355.932,144.317 356.175,144.560 356.438 C 144.890 356.798,144.851 356.846,144.400 356.629 C 144.070 356.470,144.132 356.612,144.539 356.943 C 144.945 357.274,145.532 357.447,145.843 357.328 C 146.236 357.177,146.333 357.308,146.161 357.757 C 145.975 358.241,146.224 358.465,147.157 358.651 C 147.841 358.788,148.400 359.058,148.400 359.250 C 148.400 359.442,148.670 359.600,149.000 359.600 C 149.330 359.600,149.600 359.780,149.600 360.000 C 149.600 360.220,149.971 360.400,150.424 360.400 C 150.921 360.400,151.139 360.574,150.975 360.840 C 150.782 361.153,150.946 361.150,151.543 360.831 C 152.269 360.442,152.348 360.477,152.127 361.091 C 151.987 361.481,152.018 361.668,152.196 361.507 C 152.373 361.346,152.852 361.599,153.259 362.068 C 153.759 362.645,154.002 362.740,154.006 362.361 C 154.010 362.053,154.550 362.409,155.206 363.154 C 155.863 363.899,156.400 364.373,156.400 364.208 C 156.400 364.043,156.872 364.217,157.449 364.595 C 158.141 365.049,158.387 365.099,158.172 364.741 C 157.915 364.314,157.993 364.319,158.542 364.765 C 159.089 365.209,159.127 365.400,158.719 365.659 C 158.190 365.994,158.840 366.208,159.800 366.014 C 160.020 365.970,160.071 366.062,159.914 366.219 C 159.525 366.608,160.309 368.000,160.918 368.000 C 161.187 368.000,161.632 368.360,161.907 368.800 C 162.282 369.401,162.289 369.600,161.934 369.600 C 161.673 369.600,161.841 370.005,162.306 370.500 C 163.161 371.410,163.200 371.503,163.200 372.624 C 163.200 372.967,163.372 373.141,163.582 373.011 C 163.807 372.872,163.906 373.395,163.824 374.288 C 163.747 375.119,163.855 376.011,164.064 376.268 C 164.287 376.542,164.431 381.551,164.412 388.368 L 164.380 400.000 235.176 400.000 C 305.804 400.000,305.973 399.998,306.404 399.192 C 306.642 398.747,306.735 398.219,306.611 398.017 C 306.486 397.816,306.549 396.921,306.749 396.029 C 306.960 395.089,306.963 394.499,306.757 394.627 C 306.113 395.025,306.384 394.301,307.100 393.711 C 307.646 393.262,307.663 393.176,307.180 393.324 C 306.739 393.459,306.560 393.235,306.560 392.545 C 306.560 391.914,306.742 391.645,307.080 391.775 C 307.754 392.034,307.733 391.665,306.993 390.246 C 306.635 389.559,306.532 388.912,306.739 388.646 C 307.305 387.921,307.659 385.516,307.154 385.828 C 306.844 386.020,306.841 385.870,307.146 385.301 C 307.380 384.863,307.456 384.390,307.315 384.248 C 307.174 384.107,307.405 383.723,307.829 383.395 C 308.478 382.893,308.489 382.837,307.900 383.042 C 307.515 383.176,307.200 383.101,307.200 382.876 C 307.200 382.651,307.395 382.402,307.634 382.322 C 307.872 382.243,308.122 381.193,308.188 379.989 C 308.254 378.785,308.338 377.800,308.373 377.800 C 308.409 377.800,308.524 376.810,308.628 375.600 C 308.733 374.390,308.994 373.340,309.209 373.267 C 309.424 373.193,309.600 372.439,309.600 371.590 C 309.600 370.742,309.780 369.936,310.000 369.800 C 310.220 369.664,310.379 369.248,310.354 368.876 C 310.312 368.267,310.289 368.269,310.124 368.900 C 310.024 369.285,309.764 369.600,309.547 369.600 C 309.330 369.600,309.217 369.465,309.295 369.300 C 310.472 366.823,311.363 363.388,310.987 362.779 C 310.858 362.571,311.033 362.400,311.376 362.400 C 311.822 362.400,312.000 362.001,312.000 361.000 C 312.000 360.230,312.153 359.600,312.339 359.600 C 312.526 359.600,312.694 359.033,312.714 358.339 C 312.734 357.646,312.951 356.954,313.196 356.802 C 313.441 356.651,313.611 356.363,313.574 356.163 C 313.353 354.991,313.651 353.184,314.027 353.417 C 314.261 353.562,314.420 353.437,314.379 353.140 C 314.200 351.833,314.429 349.571,314.722 349.752 C 314.899 349.861,315.060 349.239,315.079 348.368 C 315.098 347.498,315.298 346.563,315.524 346.292 C 315.750 346.020,315.918 344.504,315.898 342.923 C 315.875 341.108,316.052 339.819,316.380 339.425 C 316.757 338.970,316.769 338.800,316.425 338.800 C 316.165 338.800,316.068 338.613,316.209 338.385 C 316.573 337.797,316.664 208.837,316.300 209.062 C 316.135 209.164,316.003 208.832,316.006 208.324 C 316.011 207.558,316.086 207.503,316.444 208.000 C 316.790 208.481,316.818 208.441,316.586 207.800 C 316.427 207.360,316.202 206.550,316.087 206.000 C 315.971 205.450,315.589 204.558,315.238 204.018 C 314.887 203.477,314.658 203.027,314.728 203.018 C 315.137 202.961,313.910 200.782,313.182 200.272 C 312.704 199.938,312.423 199.486,312.558 199.268 C 312.692 199.051,312.307 198.440,311.701 197.912 C 311.095 197.383,310.407 196.612,310.171 196.199 C 309.936 195.786,309.506 195.369,309.216 195.272 C 308.926 195.175,308.804 195.283,308.945 195.511 C 309.101 195.764,308.899 195.846,308.428 195.723 C 307.969 195.603,307.743 195.294,307.870 194.961 C 308.000 194.623,307.830 194.400,307.443 194.400 C 307.089 194.400,306.800 194.201,306.800 193.957 C 306.800 193.714,306.535 193.616,306.212 193.740 C 305.888 193.864,305.393 193.749,305.112 193.483 C 304.830 193.217,304.060 192.937,303.400 192.859 C 302.740 192.782,302.068 192.512,301.906 192.259 C 301.707 191.948,301.608 191.993,301.600 192.400 C 301.590 192.892,301.525 192.901,301.242 192.455 C 300.951 191.994,300.863 191.994,300.680 192.455 C 300.526 192.842,300.454 192.855,300.432 192.500 C 300.410 192.155,299.596 192.000,297.800 192.000 C 295.990 192.000,295.198 192.152,295.194 192.500 C 295.190 192.833,295.058 192.800,294.800 192.400 C 294.455 191.867,294.411 191.867,294.400 192.400 C 294.389 192.931,294.344 192.931,294.011 192.403 C 293.710 191.928,293.532 191.908,293.137 192.303 C 292.863 192.577,292.226 192.800,291.720 192.800 C 291.214 192.800,290.800 192.980,290.800 193.200 C 290.800 193.420,290.440 193.600,290.000 193.600 C 289.560 193.600,289.200 193.810,289.200 194.067 C 289.200 194.323,289.083 194.416,288.940 194.273 C 288.796 194.130,288.442 194.325,288.152 194.706 C 287.809 195.158,287.621 195.220,287.613 194.884 C 287.602 194.463,287.497 194.463,287.042 194.884 C 286.735 195.168,286.585 195.566,286.708 195.768 C 286.833 195.974,286.618 196.016,286.221 195.863 C 285.686 195.658,285.570 195.745,285.751 196.216 C 285.883 196.560,285.834 196.745,285.642 196.626 C 285.091 196.286,283.170 198.002,283.291 198.727 C 283.351 199.088,283.131 199.386,282.800 199.391 C 282.449 199.396,282.148 199.847,282.076 200.478 C 281.989 201.225,281.774 201.488,281.376 201.335 C 281.059 201.214,280.800 201.299,280.800 201.524 C 280.800 201.749,280.994 201.998,281.231 202.077 C 281.477 202.159,281.341 202.511,280.912 202.899 C 280.090 203.643,279.958 203.153,279.845 198.933 C 279.820 198.017,279.665 197.132,279.500 196.967 C 279.335 196.802,279.200 196.157,279.200 195.533 C 279.200 194.845,279.005 194.439,278.704 194.500 C 278.385 194.564,278.252 194.213,278.331 193.512 C 278.408 192.833,278.144 192.091,277.627 191.537 C 277.172 191.049,276.800 190.315,276.800 189.906 C 276.800 189.088,275.029 187.105,274.642 187.491 C 274.414 187.719,274.230 186.613,274.369 185.851 C 274.404 185.659,274.139 185.615,273.779 185.753 C 273.350 185.917,273.062 185.757,272.938 185.284 C 272.834 184.889,271.873 184.149,270.801 183.640 C 269.730 183.131,268.752 182.453,268.629 182.132 C 268.506 181.812,268.224 181.661,268.003 181.798 C 267.781 181.935,267.597 181.722,267.594 181.324 C 267.589 180.710,267.529 180.691,267.200 181.200 C 266.987 181.530,266.809 181.596,266.806 181.347 C 266.803 181.097,266.440 180.799,265.999 180.684 C 265.521 180.559,265.299 180.636,265.448 180.877 C 265.781 181.417,263.881 180.402,263.506 179.840 C 263.303 179.536,263.210 179.554,263.206 179.900 C 263.198 180.532,262.342 180.377,261.763 179.639 C 261.443 179.232,261.244 179.205,261.037 179.539 C 260.881 179.793,260.573 180.000,260.353 180.000 C 260.133 180.000,260.051 179.841,260.171 179.646 C 260.292 179.452,259.312 179.313,257.995 179.338 C 256.678 179.363,255.600 179.516,255.600 179.679 C 255.600 179.842,255.345 179.877,255.032 179.757 C 254.720 179.637,253.962 179.868,253.348 180.270 C 252.734 180.671,252.363 180.786,252.524 180.524 C 252.715 180.214,252.546 180.069,252.036 180.107 C 251.607 180.140,251.288 180.354,251.328 180.583 C 251.367 180.812,250.999 180.979,250.509 180.953 C 250.019 180.927,249.715 181.062,249.833 181.253 C 249.951 181.444,249.396 181.600,248.600 181.600 C 247.804 181.600,247.248 181.754,247.364 181.942 C 247.480 182.130,247.091 182.715,246.500 183.242 C 245.908 183.769,245.669 183.881,245.969 183.490 C 246.269 183.100,246.430 182.697,246.328 182.595 C 246.078 182.345,244.400 183.929,244.400 184.416 C 244.400 184.627,244.040 184.800,243.600 184.800 C 243.134 184.800,242.800 185.067,242.800 185.440 C 242.800 185.791,242.260 186.583,241.600 187.200 C 240.940 187.817,240.397 188.654,240.394 189.060 C 240.389 189.684,240.327 189.706,240.000 189.200 C 239.699 188.734,239.611 188.851,239.606 189.724 C 239.602 190.470,239.445 190.751,239.138 190.562 C 238.844 190.380,238.785 190.453,238.977 190.763 C 239.143 191.031,239.014 191.554,238.691 191.925 C 238.369 192.296,237.997 192.870,237.866 193.200 C 237.735 193.530,237.676 191.320,237.734 188.288 C 237.809 184.406,237.710 182.826,237.400 182.945 C 237.133 183.047,236.992 182.660,237.040 181.957 C 237.084 181.321,236.936 180.800,236.711 180.800 C 236.478 180.800,236.525 180.532,236.819 180.177 C 237.243 179.666,237.240 179.577,236.799 179.677 C 236.467 179.753,236.248 179.418,236.224 178.800 C 236.181 177.673,235.425 176.180,234.928 176.239 C 234.748 176.260,234.660 175.925,234.733 175.495 C 234.814 175.013,234.699 174.815,234.433 174.980 C 234.192 175.129,234.000 174.965,234.000 174.611 C 234.000 174.261,233.730 173.871,233.400 173.745 C 233.070 173.618,232.800 173.258,232.800 172.945 C 232.800 172.631,232.530 172.271,232.200 172.145 C 231.870 172.018,231.600 171.634,231.600 171.291 C 231.600 170.947,231.499 170.768,231.376 170.891 C 231.252 171.014,230.738 170.729,230.233 170.258 C 228.741 168.864,227.473 168.000,226.919 168.000 C 226.633 168.000,226.400 167.711,226.400 167.357 C 226.400 166.950,226.180 166.799,225.800 166.945 C 225.470 167.071,225.200 167.020,225.200 166.830 C 225.200 166.641,224.921 166.378,224.579 166.247 C 224.158 166.086,224.054 166.168,224.256 166.505 C 224.456 166.837,224.333 166.821,223.882 166.455 C 223.512 166.156,222.931 166.018,222.590 166.149 C 222.247 166.280,221.876 166.142,221.760 165.839 C 221.617 165.467,221.053 165.340,219.997 165.443 C 219.101 165.530,218.323 165.400,218.160 165.135 C 217.973 164.833,218.055 164.787,218.400 165.000 C 218.746 165.214,218.827 165.167,218.638 164.862 C 218.260 164.250,216.697 164.272,216.021 164.900 C 215.590 165.300,215.539 165.300,215.765 164.900 C 215.942 164.587,215.798 164.400,215.381 164.400 C 214.927 164.400,214.795 164.610,214.966 165.057 C 215.157 165.554,215.095 165.611,214.709 165.291 C 214.092 164.780,210.836 165.294,210.419 165.969 C 210.264 166.221,209.833 166.311,209.463 166.169 C 209.093 166.027,208.488 166.156,208.118 166.455 C 207.542 166.923,207.490 166.915,207.753 166.400 C 207.924 166.065,207.804 166.112,207.480 166.507 C 207.137 166.926,206.635 167.112,206.246 166.962 C 205.743 166.769,205.654 166.876,205.863 167.421 C 206.050 167.908,205.989 168.040,205.668 167.842 C 205.411 167.683,205.200 167.738,205.200 167.964 C 205.200 168.190,204.952 168.280,204.648 168.163 C 204.345 168.047,203.734 168.412,203.291 168.976 C 202.847 169.539,202.305 170.000,202.085 170.000 C 201.865 170.000,201.572 170.296,201.433 170.657 C 201.295 171.019,201.067 171.200,200.926 171.060 C 200.628 170.761,199.356 172.445,199.513 172.930 C 199.572 173.111,199.456 173.158,199.255 173.034 C 198.840 172.778,198.130 173.511,197.933 174.401 C 197.860 174.731,197.485 175.291,197.101 175.646 C 196.716 176.002,196.288 176.860,196.149 177.555 C 196.010 178.249,195.785 178.886,195.648 178.970 C 195.512 179.055,195.447 159.316,195.503 135.107 C 195.586 100.203,195.503 90.962,195.103 90.468 C 194.690 89.957,194.699 89.906,195.154 90.180 C 195.602 90.450,195.653 90.254,195.420 89.157 C 195.263 88.411,195.031 86.720,194.906 85.400 C 194.726 83.504,194.616 83.210,194.379 84.000 C 194.153 84.756,194.070 84.482,194.040 82.876 C 194.018 81.708,193.865 80.835,193.700 80.934 C 193.408 81.111,192.375 80.222,192.392 79.808 C 192.440 78.617,192.187 78.127,190.837 76.790 C 189.920 75.882,189.465 75.164,189.737 75.053 C 190.049 74.925,190.029 74.853,189.676 74.832 C 189.385 74.814,189.280 74.595,189.439 74.337 C 189.636 74.018,189.450 73.946,188.840 74.106 C 188.167 74.281,187.848 74.105,187.513 73.369 C 187.270 72.836,186.954 72.400,186.811 72.400 C 186.668 72.400,186.157 72.033,185.675 71.584 C 185.194 71.136,184.800 70.976,184.800 71.229 C 184.800 71.482,184.446 71.264,184.013 70.744 C 183.302 69.890,183.225 69.873,183.213 70.561 C 183.201 71.264,183.141 71.254,182.421 70.424 C 181.963 69.896,181.444 69.649,181.159 69.825 C 180.847 70.018,180.781 69.955,180.972 69.646 C 181.185 69.301,180.980 69.240,180.237 69.426 C 179.517 69.607,179.139 69.507,178.980 69.091 C 178.724 68.424,169.335 68.258,168.930 68.913 " stroke="none" fill="#fcd49c" fill-rule="evenodd"></path><path id="path3" d="M155.735 77.300 C 155.135 78.260,155.213 79.051,155.825 78.224 C 156.388 77.463,156.574 76.800,156.224 76.800 C 156.127 76.800,155.907 77.025,155.735 77.300 M209.292 165.675 C 209.491 166.273,210.400 166.602,210.400 166.076 C 210.400 165.861,210.115 165.576,209.767 165.443 C 209.377 165.293,209.194 165.382,209.292 165.675 M141.200 209.603 C 141.200 209.821,141.680 210.000,142.267 210.000 C 143.441 210.000,143.242 209.517,141.990 209.326 C 141.555 209.259,141.200 209.384,141.200 209.603 M121.067 234.500 C 121.414 236.323,121.600 236.381,121.600 234.667 C 121.600 233.860,121.425 233.200,121.210 233.200 C 120.986 233.200,120.925 233.753,121.067 234.500 M118.770 244.500 C 118.328 245.988,118.415 246.534,118.976 245.792 C 119.680 244.860,119.754 244.400,119.200 244.400 C 118.980 244.400,118.787 244.445,118.770 244.500 M133.994 347.963 C 134.541 348.393,135.057 348.676,135.142 348.592 C 135.378 348.356,134.255 347.414,133.590 347.290 C 133.266 347.229,133.447 347.532,133.994 347.963 M138.249 352.320 C 138.141 352.496,138.478 352.640,139.000 352.640 C 139.522 352.640,139.859 352.496,139.751 352.320 C 139.642 352.144,139.304 352.000,139.000 352.000 C 138.696 352.000,138.358 352.144,138.249 352.320 M309.748 368.243 C 309.599 368.659,309.404 369.135,309.315 369.300 C 309.226 369.465,309.322 369.600,309.530 369.600 C 309.929 369.600,310.491 367.957,310.194 367.660 C 310.097 367.564,309.897 367.826,309.748 368.243 M307.200 382.800 C 307.200 383.020,307.425 383.203,307.700 383.206 C 308.039 383.210,308.010 383.332,307.612 383.584 C 307.288 383.789,307.163 384.096,307.333 384.267 C 307.749 384.682,308.380 383.614,308.120 382.936 C 307.881 382.313,307.200 382.212,307.200 382.800 " stroke="none" fill="#fcd4a4" fill-rule="evenodd"></path><path id="path4" d="M263.633 180.146 C 264.440 180.851,265.752 181.273,265.251 180.665 C 264.949 180.299,264.424 180.000,264.084 180.000 C 263.745 180.000,263.542 180.066,263.633 180.146 M237.600 190.400 C 237.600 192.233,237.715 193.618,237.856 193.477 C 238.141 193.193,238.074 187.541,237.783 187.250 C 237.683 187.149,237.600 188.567,237.600 190.400 M142.000 240.176 C 142.000 259.863,142.139 270.439,142.400 270.600 C 142.620 270.736,142.800 271.289,142.800 271.828 C 142.800 272.916,145.155 276.781,145.825 276.793 C 146.058 276.797,146.636 277.160,147.108 277.600 C 147.580 278.040,148.244 278.400,148.583 278.400 C 148.922 278.400,149.200 278.590,149.200 278.822 C 149.200 279.076,149.957 279.195,151.100 279.122 L 153.000 279.000 153.102 246.147 C 153.198 215.289,153.162 213.248,152.502 212.539 C 152.116 212.123,151.935 211.958,152.100 212.172 C 152.265 212.385,152.400 227.464,152.400 245.680 L 152.400 278.800 151.575 278.800 C 150.071 278.800,146.368 276.674,145.113 275.091 C 142.764 272.125,142.837 273.221,142.818 240.300 C 142.806 220.378,142.663 210.000,142.400 210.000 C 142.137 210.000,142.000 220.325,142.000 240.176 M316.590 241.800 C 316.590 258.740,316.640 265.612,316.700 257.070 C 316.760 248.529,316.760 234.669,316.700 226.270 C 316.640 217.872,316.590 224.860,316.590 241.800 M316.589 303.000 C 316.589 317.520,316.639 323.402,316.700 316.071 C 316.761 308.740,316.761 296.860,316.700 289.671 C 316.639 282.482,316.589 288.480,316.589 303.000 " stroke="none"  fill-rule="evenodd"></path></g></svg>