<?xml version="1.0" encoding="UTF-8" standalone="no"?>
<svg
   xmlns:dc="http://purl.org/dc/elements/1.1/"
   xmlns:cc="http://creativecommons.org/ns#"
   xmlns:rdf="http://www.w3.org/1999/02/22-rdf-syntax-ns#"
   xmlns:svg="http://www.w3.org/2000/svg"
   xmlns="http://www.w3.org/2000/svg"
   xmlns:sodipodi="http://sodipodi.sourceforge.net/DTD/sodipodi-0.dtd"
   xmlns:inkscape="http://www.inkscape.org/namespaces/inkscape"
   id="Layer_1"
   data-name="Layer 1"
   viewBox="0 0 498.17 442.04"
   version="1.1"
   sodipodi:docname="Web Puzzlers Icons Svg_Trigger Flat Icon .svg"
   inkscape:version="0.92.5 (2060ec1f9f, 2020-04-08)">
  <metadata
     id="metadata17">
    <rdf:RDF>
      <cc:Work
         rdf:about="">
        <dc:format>image/svg+xml</dc:format>
        <dc:type
           rdf:resource="http://purl.org/dc/dcmitype/StillImage" />
        <dc:title></dc:title>
      </cc:Work>
    </rdf:RDF>
  </metadata>
  <sodipodi:namedview
     pagecolor="#8b3939"
     bordercolor="#666666"
     borderopacity="1"
     objecttolerance="10"
     gridtolerance="10"
     guidetolerance="10"
     inkscape:pageopacity="0"
     inkscape:pageshadow="2"
     inkscape:window-width="1500"
     inkscape:window-height="839"
     id="namedview15"
     showgrid="false"
     inkscape:zoom="0.39"
     inkscape:cx="249.08501"
     inkscape:cy="221.02"
     inkscape:window-x="0"
     inkscape:window-y="0"
     inkscape:window-maximized="0"
     inkscape:current-layer="Layer_1" />
  <defs
     id="defs4">
    <style
       id="style2">.cls-1{fill:#fff;}</style>
  </defs>
  <path
     class="cls-1"
     d="m 390.81548,240.26994 v 130.34561 a 68.07691,68.07691 0 0 1 -20.02262,47.29309 66.81929,66.81929 0 0 1 -46.99524,20.27084 h -87.05703 c -20.71762,0 -40.50857,-13.2381 -51.66167,-34.75001 L 113.92415,267.15983 a 6.6190481,6.6190481 0 0 1 1.65476,-8.27382 l 5.36143,-4.38511 a 35.974527,35.974527 0 0 1 50.37095,4.96428 l 9.81274,11.93083 a 6.0895243,6.0895243 0 0 0 10.77251,-3.88869 V 115.84839 c 0,-13.2381 9.92857,-24.821427 23.16666,-25.764642 a 24.970359,24.970359 0 0 1 26.65822,24.821422 V 269.0959 a 6.0729766,6.0729766 0 1 0 12.14595,0 v -68.2093 a 7.9759529,7.9759529 0 0 1 5.60965,-7.71118 25.020001,25.020001 0 0 1 9.11774,-0.92666 25.301311,25.301311 0 0 1 19.19523,11.45094 25.003454,25.003454 0 0 1 4.07072,13.76762 v 43.76846 a 6.3046433,6.3046433 0 0 0 4.96429,6.32119 6.1060719,6.1060719 0 0 0 7.11547,-5.99024 v -44.09941 c 0,-0.41369 0,-0.79428 0,-1.20797 a 39.366788,39.366788 0 0 0 -0.52952,-5.26215 7.9097625,7.9097625 0 0 1 5.64274,-8.88607 24.82143,24.82143 0 0 1 30.39797,15.985 25.400597,25.400597 0 0 1 1.30727,8.0256 v 27.86619 a 6.0729766,6.0729766 0 0 0 7.08238,5.97369 6.2053576,6.2053576 0 0 0 5.06357,-6.23845 v -27.99858 c 0,-0.59571 0,-1.20797 0,-1.80369 a 8.1083339,8.1083339 0 0 1 6.13917,-8.2738 25.301311,25.301311 0 0 1 18.40095,2.20082 26.194883,26.194883 0 0 1 12.65893,16.3656 22.752978,22.752978 0 0 1 0.71155,6.05643 z"
     id="path6"
     inkscape:connector-curvature="0"
     style="fill:#ffffff;stroke-width:1.65476203" />
  <path
     class="cls-1"
     d="m 217.13166,8.040647 a 105.40834,105.40834 0 0 0 -49.3781,198.571443 6.0739572,6.0739572 0 1 0 5.70893,-10.72287 93.262387,93.262387 0 1 1 113.91381,-21.08166 6.0749082,6.0749082 0 0 0 9.15084,7.9925 A 105.40834,105.40834 0 0 0 217.09856,8.0737421 Z"
     id="path8"
     inkscape:connector-curvature="0"
     style="fill:#ffffff;stroke-width:1.65476203" />
  <path
     class="cls-1"
     d="m 217.13166,30.082078 a 83.366911,83.366911 0 0 0 -54.16037,146.760842 6.0800444,6.0800444 0 1 0 7.89322,-9.25012 71.154766,71.154766 0 1 1 95.82727,-3.06131 6.0735065,6.0735065 0 0 0 8.45583,8.7206 83.350363,83.350363 0 0 0 -58.04905,-143.170012 z"
     id="path10"
     inkscape:connector-curvature="0"
     style="fill:#ffffff;stroke-width:1.65476203" />
  <path
     class="cls-1"
     d="m 217.13166,53.530056 a 59.902385,59.902385 0 0 0 -51.76096,90.101784 6.0735422,6.0735422 0 0 0 10.49119,-6.12261 47.739884,47.739884 0 1 1 82.53953,0 6.0729766,6.0729766 0 1 0 10.47465,6.12261 59.918933,59.918933 0 0 0 -51.76096,-90.052141 z"
     id="path12"
     inkscape:connector-curvature="0"
     style="fill:#ffffff;stroke-width:1.65476203" />
</svg>
